0
SECTION
2
HEADER
9
$ACADVER
1
AC1008
9
$UCSORG
10
0.0
20
0.0
30
0.0
9
$UCSXDIR
10
1.0
20
0.0
30
0.0
9
$TILEMODE
70
1
9
$UCSYDIR
10
0.0
20
1.0
30
0.0
9
$EXTMIN
10
-49.500015
20
-9.001939
30
-0.000001
9
$EXTMAX
10
49.499985
20
9.000031
30
229.500000
0
ENDSEC
0
SECTION
2
TABLES
0
TABLE
2
LTYPE
70
1
0
LTYPE
2
CONTINUOUS
70
64
3
Solid line
72
65
73
0
40
0.0
0
ENDTAB
0
TABLE
2
LAYER
70
2
0
LAYER
2
FRAME
70
0
62
234
6
CONTINUOUS
0
LAYER
2
DOOR
70
0
62
9
6
CONTINUOUS
0
ENDTAB
0
TABLE
2
STYLE
70
1
0
STYLE
2
STANDARD
70
0
40
0.0
41
1.0
50
0.0
71
0
42
0.2
3
txt
4

0
ENDTAB
0
TABLE
2
UCS
70
0
0
ENDTAB
0
ENDSEC
0
SECTION
2
ENTITIES
0
POLYLINE
8
FRAME
66
1
70
64
71
16
72
28
62
234
0
VERTEX
8
FRAME
10
49.499954
20
-1.999994
30
-0.000000
70
192
0
VERTEX
8
FRAME
10
49.499954
20
-2.000039
30
229.500000
70
192
0
VERTEX
8
FRAME
10
-49.500015
20
-2.000078
30
229.500000
70
192
0
VERTEX
8
FRAME
10
-49.500015
20
-2.000048
30
0.000000
70
192
0
VERTEX
8
FRAME
10
-46.500015
20
-2.000048
30
0.000001
70
192
0
VERTEX
8
FRAME
10
-46.500015
20
-2.000078
30
226.500000
70
192
0
VERTEX
8
FRAME
10
46.499954
20
-2.000040
30
226.500000
70
192
0
VERTEX
8
FRAME
10
46.499954
20
-1.999994
30
-0.000001
70
192
0
VERTEX
8
FRAME
10
49.499985
20
1.999991
30
-0.000000
70
192
0
VERTEX
8
FRAME
10
49.499985
20
1.999961
30
229.500000
70
192
0
VERTEX
8
FRAME
10
-49.500015
20
1.999921
30
229.500000
70
192
0
VERTEX
8
FRAME
10
-49.500015
20
1.999952
30
0.000000
70
192
0
VERTEX
8
FRAME
10
-46.500015
20
1.999952
30
0.000001
70
192
0
VERTEX
8
FRAME
10
-46.500015
20
1.999922
30
226.500000
70
192
0
VERTEX
8
FRAME
10
46.499985
20
1.999960
30
226.500000
70
192
0
VERTEX
8
FRAME
10
46.499985
20
1.999991
30
-0.000001
70
192
0
VERTEX
8
FRAME
10
0
20
0
30
0
70
128
71
3
72
4
73
-5
0
VERTEX
8
FRAME
10
0
20
0
30
0
70
128
71
-3
72
5
73
-6
0
VERTEX
8
FRAME
10
0
20
0
30
0
70
128
71
2
72
-3
73
-6
0
VERTEX
8
FRAME
10
0
20
0
30
0
70
128
71
-2
72
6
73
-7
0
VERTEX
8
FRAME
10
0
20
0
30
0
70
128
71
1
72
-2
73
-7
0
VERTEX
8
FRAME
10
0
20
0
30
0
70
128
71
-1
72
7
73
8
0
VERTEX
8
FRAME
10
0
20
0
30
0
70
128
71
10
72
2
73
-1
0
VERTEX
8
FRAME
10
0
20
0
30
0
70
128
71
9
72
-10
73
1
0
VERTEX
8
FRAME
10
0
20
0
30
0
70
128
71
11
72
3
73
-2
0
VERTEX
8
FRAME
10
0
20
0
30
0
70
128
71
10
72
-11
73
2
0
VERTEX
8
FRAME
10
0
20
0
30
0
70
128
71
12
72
4
73
-3
0
VERTEX
8
FRAME
10
0
20
0
30
0
70
128
71
11
72
-12
73
3
0
VERTEX
8
FRAME
10
0
20
0
30
0
70
128
71
13
72
5
73
-4
0
VERTEX
8
FRAME
10
0
20
0
30
0
70
128
71
12
72
-13
73
4
0
VERTEX
8
FRAME
10
0
20
0
30
0
70
128
71
14
72
6
73
-5
0
VERTEX
8
FRAME
10
0
20
0
30
0
70
128
71
13
72
-14
73
5
0
VERTEX
8
FRAME
10
0
20
0
30
0
70
128
71
15
72
7
73
-6
0
VERTEX
8
FRAME
10
0
20
0
30
0
70
128
71
14
72
-15
73
6
0
VERTEX
8
FRAME
10
0
20
0
30
0
70
128
71
16
72
8
73
-7
0
VERTEX
8
FRAME
10
0
20
0
30
0
70
128
71
15
72
-16
73
7
0
VERTEX
8
FRAME
10
0
20
0
30
0
70
128
71
9
72
1
73
-8
0
VERTEX
8
FRAME
10
0
20
0
30
0
70
128
71
16
72
-9
73
8
0
VERTEX
8
FRAME
10
0
20
0
30
0
70
128
71
13
72
12
73
-11
0
VERTEX
8
FRAME
10
0
20
0
30
0
70
128
71
14
72
-13
73
-11
0
VERTEX
8
FRAME
10
0
20
0
30
0
70
128
71
-14
72
11
73
-10
0
VERTEX
8
FRAME
10
0
20
0
30
0
70
128
71
15
72
-14
73
-10
0
VERTEX
8
FRAME
10
0
20
0
30
0
70
128
71
-15
72
10
73
-9
0
VERTEX
8
FRAME
10
0
20
0
30
0
70
128
71
16
72
-15
73
9
0
SEQEND
8
FRAME
0
POLYLINE
8
DOOR
66
1
70
64
71
516
72
892
62
9
0
VERTEX
8
DOOR
10
-46.000015
20
-1.999956
30
226.000549
70
192
0
VERTEX
8
DOOR
10
45.999954
20
-1.999918
30
226.000549
70
192
0
VERTEX
8
DOOR
10
45.999985
20
2.000082
30
226.000549
70
192
0
VERTEX
8
DOOR
10
-46.000015
20
2.000044
30
226.000549
70
192
0
VERTEX
8
DOOR
10
-46.000015
20
-2.000017
30
0.499931
70
192
0
VERTEX
8
DOOR
10
45.999954
20
-1.999979
30
0.499931
70
192
0
VERTEX
8
DOOR
10
45.999985
20
2.000021
30
0.499930
70
192
0
VERTEX
8
DOOR
10
-46.000015
20
1.999983
30
0.499930
70
192
0
VERTEX
8
DOOR
10
-25.503799
20
-6.001083
30
99.000069
70
192
0
VERTEX
8
DOOR
10
-24.996964
20
-6.002792
30
99.136726
70
192
0
VERTEX
8
DOOR
10
-24.639786
20
-6.001938
30
99.495613
70
192
0
VERTEX
8
DOOR
10
-24.503189
20
-6.002060
30
100.000069
70
192
0
VERTEX
8
DOOR
10
-24.639786
20
-6.001938
30
100.504524
70
192
0
VERTEX
8
DOOR
10
-24.996964
20
-6.002792
30
100.863411
70
192
0
VERTEX
8
DOOR
10
-25.503799
20
-6.001083
30
101.000069
70
192
0
VERTEX
8
DOOR
10
-26.008316
20
-6.001328
30
100.863411
70
192
0
VERTEX
8
DOOR
10
-26.365128
20
-6.002060
30
100.504585
70
192
0
VERTEX
8
DOOR
10
-26.503311
20
-6.001572
30
100.000069
70
192
0
VERTEX
8
DOOR
10
-26.365128
20
-6.002060
30
99.495552
70
192
0
VERTEX
8
DOOR
10
-26.008316
20
-6.001328
30
99.136726
70
192
0
VERTEX
8
DOOR
10
-25.596573
20
-6.593613
30
99.000069
70
192
0
VERTEX
8
DOOR
10
-25.114517
20
-6.746078
30
99.136726
70
192
0
VERTEX
8
DOOR
10
-24.773087
20
-6.854599
30
99.495613
70
192
0
VERTEX
8
DOOR
10
-24.642349
20
-6.895248
30
100.000069
70
192
0
VERTEX
8
DOOR
10
-24.773087
20
-6.854599
30
100.504524
70
192
0
VERTEX
8
DOOR
10
-25.114761
20
-6.746567
30
100.863411
70
192
0
VERTEX
8
DOOR
10
-25.595596
20
-6.594589
30
101.000069
70
192
0
VERTEX
8
DOOR
10
-26.078140
20
-6.441269
30
100.863411
70
192
0
VERTEX
8
DOOR
10
-26.419205
20
-6.334336
30
100.504585
70
192
0
VERTEX
8
DOOR
10
-26.549820
20
-6.292344
30
100.000069
70
192
0
VERTEX
8
DOOR
10
-26.419937
20
-6.333115
30
99.495552
70
192
0
VERTEX
8
DOOR
10
-26.078140
20
-6.441269
30
99.136726
70
192
0
VERTEX
8
DOOR
10
-25.862808
20
-7.138290
30
99.000069
70
192
0
VERTEX
8
DOOR
10
-25.448380
20
-7.424545
30
99.136726
70
192
0
VERTEX
8
DOOR
10
-25.153824
20
-7.628036
30
99.495613
70
192
0
VERTEX
8
DOOR
10
-25.039200
20
-7.706894
30
100.000069
70
192
0
VERTEX
8
DOOR
10
-25.153824
20
-7.628036
30
100.504524
70
192
0
VERTEX
8
DOOR
10
-25.448380
20
-7.424545
30
100.863411
70
192
0
VERTEX
8
DOOR
10
-25.862808
20
-7.138290
30
101.000069
70
192
0
VERTEX
8
DOOR
10
-26.277359
20
-6.851425
30
100.863411
70
192
0
VERTEX
8
DOOR
10
-26.573746
20
-6.646836
30
100.504585
70
192
0
VERTEX
8
DOOR
10
-26.684708
20
-6.570420
30
100.000069
70
192
0
VERTEX
8
DOOR
10
-26.573746
20
-6.646836
30
99.495552
70
192
0
VERTEX
8
DOOR
10
-26.277359
20
-6.851425
30
99.136726
70
192
0
VERTEX
8
DOOR
10
-26.281876
20
-7.586533
30
99.000069
70
192
0
VERTEX
8
DOOR
10
-25.972794
20
-7.984848
30
99.136726
70
192
0
VERTEX
8
DOOR
10
-25.754776
20
-8.267563
30
99.495613
70
192
0
VERTEX
8
DOOR
10
-25.671158
20
-8.375473
30
100.000069
70
192
0
VERTEX
8
DOOR
10
-25.754776
20
-8.267563
30
100.504524
70
192
0
VERTEX
8
DOOR
10
-25.972794
20
-7.984848
30
100.863411
70
192
0
VERTEX
8
DOOR
10
-26.281876
20
-7.586533
30
101.000069
70
192
0
VERTEX
8
DOOR
10
-26.593155
20
-7.186875
30
100.863411
70
192
0
VERTEX
8
DOOR
10
-26.812759
20
-6.903672
30
100.504585
70
192
0
VERTEX
8
DOOR
10
-26.895523
20
-6.795395
30
100.000069
70
192
0
VERTEX
8
DOOR
10
-26.812759
20
-6.903672
30
99.495552
70
192
0
VERTEX
8
DOOR
10
-26.593155
20
-7.186875
30
99.136726
70
192
0
VERTEX
8
DOOR
10
-26.837418
20
-7.889512
30
99.000069
70
192
0
VERTEX
8
DOOR
10
-26.671524
20
-8.365829
30
99.136726
70
192
0
VERTEX
8
DOOR
10
-26.552383
20
-8.705551
30
99.495613
70
192
0
VERTEX
8
DOOR
10
-26.507462
20
-8.834946
30
100.000069
70
192
0
VERTEX
8
DOOR
10
-26.552383
20
-8.705551
30
100.504524
70
192
0
VERTEX
8
DOOR
10
-26.671524
20
-8.365829
30
100.863411
70
192
0
VERTEX
8
DOOR
10
-26.837418
20
-7.889512
30
101.000069
70
192
0
VERTEX
8
DOOR
10
-27.001846
20
-7.413926
30
100.863411
70
192
0
VERTEX
8
DOOR
10
-27.120499
20
-7.074326
30
100.504585
70
192
0
VERTEX
8
DOOR
10
-27.165543
20
-6.944809
30
100.000069
70
192
0
VERTEX
8
DOOR
10
-27.120499
20
-7.074326
30
99.495552
70
192
0
VERTEX
8
DOOR
10
-27.001846
20
-7.413926
30
99.136726
70
192
0
VERTEX
8
DOOR
10
-27.504532
20
-8.001572
30
99.000069
70
192
0
VERTEX
8
DOOR
10
-27.461685
20
-8.504135
30
99.136726
70
192
0
VERTEX
8
DOOR
10
-27.431900
20
-8.862411
30
99.495613
70
192
0
VERTEX
8
DOOR
10
-27.421280
20
-8.998032
30
100.000069
70
192
0
VERTEX
8
DOOR
10
-27.431900
20
-8.862411
30
100.504524
70
192
0
VERTEX
8
DOOR
10
-27.461685
20
-8.504135
30
100.863411
70
192
0
VERTEX
8
DOOR
10
-27.504532
20
-8.001572
30
101.000069
70
192
0
VERTEX
8
DOOR
10
-27.546158
20
-7.498520
30
100.863411
70
192
0
VERTEX
8
DOOR
10
-27.574600
20
-7.142563
30
100.504585
70
192
0
VERTEX
8
DOOR
10
-27.585587
20
-7.005967
30
100.000069
70
192
0
VERTEX
8
DOOR
10
-27.574600
20
-7.142563
30
99.495552
70
192
0
VERTEX
8
DOOR
10
-27.546158
20
-7.498520
30
99.136726
70
192
0
VERTEX
8
DOOR
10
-32.504044
20
-8.001695
30
99.000061
70
192
0
VERTEX
8
DOOR
10
-32.502335
20
-8.507066
30
99.136719
70
192
0
VERTEX
8
DOOR
10
-32.502335
20
-8.865220
30
99.495605
70
192
0
VERTEX
8
DOOR
10
-32.502945
20
-9.001939
30
100.000061
70
192
0
VERTEX
8
DOOR
10
-32.502335
20
-8.865220
30
100.504517
70
192
0
VERTEX
8
DOOR
10
-32.502335
20
-8.507066
30
100.863403
70
192
0
VERTEX
8
DOOR
10
-32.504044
20
-8.001695
30
101.000061
70
192
0
VERTEX
8
DOOR
10
-32.502579
20
-7.497666
30
100.863403
70
192
0
VERTEX
8
DOOR
10
-32.503677
20
-7.138291
30
100.504578
70
192
0
VERTEX
8
DOOR
10
-32.503433
20
-7.001695
30
100.000061
70
192
0
VERTEX
8
DOOR
10
-32.503677
20
-7.138291
30
99.495544
70
192
0
VERTEX
8
DOOR
10
-32.502579
20
-7.497666
30
99.136719
70
192
0
VERTEX
8
DOOR
10
-37.504044
20
-8.001954
30
99.000061
70
192
0
VERTEX
8
DOOR
10
-37.546280
20
-8.504273
30
99.136719
70
192
0
VERTEX
8
DOOR
10
-37.574356
20
-8.862672
30
99.495605
70
192
0
VERTEX
8
DOOR
10
-37.586075
20
-8.998780
30
100.000061
70
192
0
VERTEX
8
DOOR
10
-37.574356
20
-8.862672
30
100.504517
70
192
0
VERTEX
8
DOOR
10
-37.546280
20
-8.504273
30
100.863403
70
192
0
VERTEX
8
DOOR
10
-37.504044
20
-8.001954
30
101.000061
70
192
0
VERTEX
8
DOOR
10
-37.460709
20
-7.499513
30
100.863403
70
192
0
VERTEX
8
DOOR
10
-37.432266
20
-7.141359
30
100.504578
70
192
0
VERTEX
8
DOOR
10
-37.420670
20
-7.005250
30
100.000061
70
192
0
VERTEX
8
DOOR
10
-37.432266
20
-7.141359
30
99.495544
70
192
0
VERTEX
8
DOOR
10
-37.460709
20
-7.499513
30
99.136719
70
192
0
VERTEX
8
DOOR
10
-38.169937
20
-7.889284
30
99.000061
70
192
0
VERTEX
8
DOOR
10
-38.335342
20
-8.366700
30
99.136719
70
192
0
VERTEX
8
DOOR
10
-38.452530
20
-8.706178
30
99.495605
70
192
0
VERTEX
8
DOOR
10
-38.497452
20
-8.834840
30
100.000061
70
192
0
VERTEX
8
DOOR
10
-38.452530
20
-8.706178
30
100.504517
70
192
0
VERTEX
8
DOOR
10
-38.334488
20
-8.366334
30
100.863403
70
192
0
VERTEX
8
DOOR
10
-38.169937
20
-7.889284
30
101.000061
70
192
0
VERTEX
8
DOOR
10
-38.003067
20
-7.413820
30
100.863403
70
192
0
VERTEX
8
DOOR
10
-37.885635
20
-7.074342
30
100.504578
70
192
0
VERTEX
8
DOOR
10
-37.841812
20
-6.945436
30
100.000061
70
192
0
VERTEX
8
DOOR
10
-37.886124
20
-7.074342
30
99.495544
70
192
0
VERTEX
8
DOOR
10
-38.003067
20
-7.413820
30
99.136719
70
192
0
VERTEX
8
DOOR
10
-38.722061
20
-7.586183
30
99.000061
70
192
0
VERTEX
8
DOOR
10
-39.032486
20
-7.984376
30
99.136719
70
192
0
VERTEX
8
DOOR
10
-39.252701
20
-8.267701
30
99.495605
70
192
0
VERTEX
8
DOOR
10
-39.335342
20
-8.376588
30
100.000061
70
192
0
VERTEX
8
DOOR
10
-39.252701
20
-8.267701
30
100.504517
70
192
0
VERTEX
8
DOOR
10
-39.032486
20
-7.984376
30
100.863403
70
192
0
VERTEX
8
DOOR
10
-38.722061
20
-7.586183
30
101.000061
70
192
0
VERTEX
8
DOOR
10
-38.412369
20
-7.188112
30
100.863403
70
192
0
VERTEX
8
DOOR
10
-38.193619
20
-6.903932
30
100.504578
70
192
0
VERTEX
8
DOOR
10
-38.110123
20
-6.795656
30
100.000061
70
192
0
VERTEX
8
DOOR
10
-38.194229
20
-6.903688
30
99.495544
70
192
0
VERTEX
8
DOOR
10
-38.412369
20
-7.188112
30
99.136719
70
192
0
VERTEX
8
DOOR
10
-39.142471
20
-7.138307
30
99.000061
70
192
0
VERTEX
8
DOOR
10
-39.558365
20
-7.424318
30
99.136719
70
192
0
VERTEX
8
DOOR
10
-39.853409
20
-7.628297
30
99.495605
70
192
0
VERTEX
8
DOOR
10
-39.964859
20
-7.706422
30
100.000061
70
192
0
VERTEX
8
DOOR
10
-39.853409
20
-7.628297
30
100.504517
70
192
0
VERTEX
8
DOOR
10
-39.558853
20
-7.423585
30
100.863403
70
192
0
VERTEX
8
DOOR
10
-39.142471
20
-7.138307
30
101.000061
70
192
0
VERTEX
8
DOOR
10
-38.728653
20
-6.850709
30
100.863403
70
192
0
VERTEX
8
DOOR
10
-38.434464
20
-6.646242
30
100.504578
70
192
0
VERTEX
8
DOOR
10
-38.319107
20
-6.569948
30
100.000061
70
192
0
VERTEX
8
DOOR
10
-38.434464
20
-6.646242
30
99.495544
70
192
0
VERTEX
8
DOOR
10
-38.728653
20
-6.850709
30
99.136719
70
192
0
VERTEX
8
DOOR
10
-39.409439
20
-6.593996
30
99.000061
70
192
0
VERTEX
8
DOOR
10
-39.890640
20
-6.745851
30
99.136719
70
192
0
VERTEX
8
DOOR
10
-40.232803
20
-6.854127
30
99.495605
70
192
0
VERTEX
8
DOOR
10
-40.362930
20
-6.895387
30
100.000061
70
192
0
VERTEX
8
DOOR
10
-40.232803
20
-6.854127
30
100.504517
70
192
0
VERTEX
8
DOOR
10
-39.890640
20
-6.745851
30
100.863403
70
192
0
VERTEX
8
DOOR
10
-39.409439
20
-6.593996
30
101.000061
70
192
0
VERTEX
8
DOOR
10
-38.927139
20
-6.442506
30
100.863403
70
192
0
VERTEX
8
DOOR
10
-38.585587
20
-6.333864
30
100.504578
70
192
0
VERTEX
8
DOOR
10
-38.456924
20
-6.292238
30
100.000061
70
192
0
VERTEX
8
DOOR
10
-38.585709
20
-6.333986
30
99.495544
70
192
0
VERTEX
8
DOOR
10
-38.927139
20
-6.442506
30
99.136719
70
192
0
VERTEX
8
DOOR
10
-39.502335
20
-6.002321
30
99.000061
70
192
0
VERTEX
8
DOOR
10
-40.004166
20
-6.041994
30
99.136719
70
192
0
VERTEX
8
DOOR
10
-40.363174
20
-6.069337
30
99.495605
70
192
0
VERTEX
8
DOOR
10
-40.500137
20
-6.079469
30
100.000061
70
192
0
VERTEX
8
DOOR
10
-40.363174
20
-6.069337
30
100.504517
70
192
0
VERTEX
8
DOOR
10
-40.004166
20
-6.041994
30
100.863403
70
192
0
VERTEX
8
DOOR
10
-39.502335
20
-6.002321
30
101.000061
70
192
0
VERTEX
8
DOOR
10
-38.999283
20
-5.963136
30
100.863403
70
192
0
VERTEX
8
DOOR
10
-38.642471
20
-5.934328
30
100.504578
70
192
0
VERTEX
8
DOOR
10
-38.505020
20
-5.923830
30
100.000061
70
192
0
VERTEX
8
DOOR
10
-38.643082
20
-5.933717
30
99.495544
70
192
0
VERTEX
8
DOOR
10
-38.999283
20
-5.963136
30
99.136719
70
192
0
VERTEX
8
DOOR
10
-39.502090
20
-3.001832
30
99.000061
70
192
0
VERTEX
8
DOOR
10
-40.006485
20
-3.002443
30
99.136719
70
192
0
VERTEX
8
DOOR
10
-40.366226
20
-3.002077
30
99.495605
70
192
0
VERTEX
8
DOOR
10
-40.502090
20
-3.002321
30
100.000061
70
192
0
VERTEX
8
DOOR
10
-40.366226
20
-3.002077
30
100.504517
70
192
0
VERTEX
8
DOOR
10
-40.007950
20
-3.001466
30
100.863403
70
192
0
VERTEX
8
DOOR
10
-39.502090
20
-3.001832
30
101.000061
70
192
0
VERTEX
8
DOOR
10
-38.997330
20
-3.001832
30
100.863403
70
192
0
VERTEX
8
DOOR
10
-38.638809
20
-3.001832
30
100.504578
70
192
0
VERTEX
8
DOOR
10
-38.503922
20
-3.001466
30
100.000061
70
192
0
VERTEX
8
DOOR
10
-38.638809
20
-3.001832
30
99.495544
70
192
0
VERTEX
8
DOOR
10
-38.997330
20
-3.001832
30
99.136719
70
192
0
VERTEX
8
DOOR
10
-39.501602
20
-2.001955
30
103.000061
70
192
0
VERTEX
8
DOOR
10
-41.002335
20
-2.002199
30
102.598137
70
192
0
VERTEX
8
DOOR
10
-42.100113
20
-2.002321
30
101.500061
70
192
0
VERTEX
8
DOOR
10
-42.502213
20
-2.002077
30
100.000061
70
192
0
VERTEX
8
DOOR
10
-42.100113
20
-2.002321
30
98.500061
70
192
0
VERTEX
8
DOOR
10
-41.002335
20
-2.002199
30
97.401985
70
192
0
VERTEX
8
DOOR
10
-39.501602
20
-2.001955
30
97.000061
70
192
0
VERTEX
8
DOOR
10
-38.002335
20
-2.002198
30
97.401985
70
192
0
VERTEX
8
DOOR
10
-36.906265
20
-2.000978
30
98.500061
70
192
0
VERTEX
8
DOOR
10
-36.501846
20
-2.001954
30
100.000061
70
192
0
VERTEX
8
DOOR
10
-36.906265
20
-2.000978
30
101.500061
70
192
0
VERTEX
8
DOOR
10
-38.002335
20
-2.002198
30
102.598137
70
192
0
VERTEX
8
DOOR
10
-39.502823
20
-2.502077
30
103.000061
70
192
0
VERTEX
8
DOOR
10
-41.001968
20
-2.502443
30
102.598137
70
192
0
VERTEX
8
DOOR
10
-42.100357
20
-2.502565
30
101.500061
70
192
0
VERTEX
8
DOOR
10
-42.502823
20
-2.501955
30
100.000061
70
192
0
VERTEX
8
DOOR
10
-42.100357
20
-2.502565
30
98.500061
70
192
0
VERTEX
8
DOOR
10
-41.001968
20
-2.502443
30
97.401985
70
192
0
VERTEX
8
DOOR
10
-39.502823
20
-2.502077
30
97.000061
70
192
0
VERTEX
8
DOOR
10
-38.002823
20
-2.501832
30
97.401985
70
192
0
VERTEX
8
DOOR
10
-36.904922
20
-2.501954
30
98.500061
70
192
0
VERTEX
8
DOOR
10
-36.501846
20
-2.502076
30
100.000061
70
192
0
VERTEX
8
DOOR
10
-36.904922
20
-2.501954
30
101.500061
70
192
0
VERTEX
8
DOOR
10
-38.003799
20
-2.501344
30
102.598137
70
192
0
VERTEX
8
DOOR
10
-39.502090
20
-3.001832
30
101.142105
70
192
0
VERTEX
8
DOOR
10
-40.073990
20
-3.001955
30
100.989098
70
192
0
VERTEX
8
DOOR
10
-40.493179
20
-3.001344
30
100.571083
70
192
0
VERTEX
8
DOOR
10
-40.644302
20
-3.002443
30
100.000061
70
192
0
VERTEX
8
DOOR
10
-40.493179
20
-3.001344
30
99.429039
70
192
0
VERTEX
8
DOOR
10
-40.073990
20
-3.001955
30
99.011017
70
192
0
VERTEX
8
DOOR
10
-39.502090
20
-3.001832
30
98.858017
70
192
0
VERTEX
8
DOOR
10
-38.931534
20
-3.001710
30
99.011017
70
192
0
VERTEX
8
DOOR
10
-38.514175
20
-3.001344
30
99.429039
70
192
0
VERTEX
8
DOOR
10
-38.361465
20
-3.001954
30
100.000061
70
192
0
VERTEX
8
DOOR
10
-38.514175
20
-3.001344
30
100.571083
70
192
0
VERTEX
8
DOOR
10
-38.931534
20
-3.001710
30
100.989098
70
192
0
VERTEX
8
DOOR
10
-39.502090
20
-3.001832
30
100.000061
70
192
0
VERTEX
8
DOOR
10
-39.501602
20
-2.001955
30
93.000061
70
192
0
VERTEX
8
DOOR
10
-41.002335
20
-2.002199
30
92.598137
70
192
0
VERTEX
8
DOOR
10
-42.100113
20
-2.002321
30
91.500061
70
192
0
VERTEX
8
DOOR
10
-42.502213
20
-2.002077
30
90.000061
70
192
0
VERTEX
8
DOOR
10
-42.100113
20
-2.002321
30
88.500061
70
192
0
VERTEX
8
DOOR
10
-41.002335
20
-2.002199
30
87.401985
70
192
0
VERTEX
8
DOOR
10
-39.501602
20
-2.001955
30
87.000061
70
192
0
VERTEX
8
DOOR
10
-38.003555
20
-2.001588
30
87.401985
70
192
0
VERTEX
8
DOOR
10
-36.906265
20
-2.000978
30
88.500061
70
192
0
VERTEX
8
DOOR
10
-36.501724
20
-2.002076
30
90.000061
70
192
0
VERTEX
8
DOOR
10
-36.906265
20
-2.000978
30
91.500061
70
192
0
VERTEX
8
DOOR
10
-38.003555
20
-2.001588
30
92.598137
70
192
0
VERTEX
8
DOOR
10
-39.502823
20
-2.502077
30
93.000061
70
192
0
VERTEX
8
DOOR
10
-41.001968
20
-2.502443
30
92.598137
70
192
0
VERTEX
8
DOOR
10
-42.100357
20
-2.502565
30
91.500061
70
192
0
VERTEX
8
DOOR
10
-42.502823
20
-2.501955
30
90.000061
70
192
0
VERTEX
8
DOOR
10
-42.100357
20
-2.502565
30
88.500061
70
192
0
VERTEX
8
DOOR
10
-41.001968
20
-2.502458
30
87.401985
70
192
0
VERTEX
8
DOOR
10
-39.502823
20
-2.502077
30
87.000061
70
192
0
VERTEX
8
DOOR
10
-38.002823
20
-2.501848
30
87.401985
70
192
0
VERTEX
8
DOOR
10
-36.904922
20
-2.501954
30
88.500061
70
192
0
VERTEX
8
DOOR
10
-36.501846
20
-2.502076
30
90.000061
70
192
0
VERTEX
8
DOOR
10
-36.904922
20
-2.501954
30
91.500061
70
192
0
VERTEX
8
DOOR
10
-38.002823
20
-2.501832
30
92.598137
70
192
0
VERTEX
8
DOOR
10
-39.502823
20
-2.502077
30
90.000061
70
192
0
VERTEX
8
DOOR
10
-39.501846
20
-2.676713
30
88.000061
70
192
0
VERTEX
8
DOOR
10
-39.756241
20
-2.675615
30
88.068382
70
192
0
VERTEX
8
DOOR
10
-39.934952
20
-2.676225
30
88.247810
70
192
0
VERTEX
8
DOOR
10
-40.003677
20
-2.675737
30
88.500061
70
192
0
VERTEX
8
DOOR
10
-40.003677
20
-2.675737
30
88.776016
70
192
0
VERTEX
8
DOOR
10
-40.003677
20
-2.675737
30
89.415405
70
192
0
VERTEX
8
DOOR
10
-40.003677
20
-2.675737
30
90.135483
70
192
0
VERTEX
8
DOOR
10
-40.264542
20
-2.676347
30
90.354477
70
192
0
VERTEX
8
DOOR
10
-40.438980
20
-2.676469
30
90.650177
70
192
0
VERTEX
8
DOOR
10
-40.504288
20
-2.675127
30
91.000061
70
192
0
VERTEX
8
DOOR
10
-40.367447
20
-2.675615
30
91.504562
70
192
0
VERTEX
8
DOOR
10
-40.007828
20
-2.675737
30
91.863426
70
192
0
VERTEX
8
DOOR
10
-39.501846
20
-2.676713
30
92.000061
70
192
0
VERTEX
8
DOOR
10
-38.999283
20
-2.675859
30
91.863419
70
192
0
VERTEX
8
DOOR
10
-38.639664
20
-2.676225
30
91.504562
70
192
0
VERTEX
8
DOOR
10
-38.501846
20
-2.676347
30
91.000061
70
192
0
VERTEX
8
DOOR
10
-38.566544
20
-2.676469
30
90.650177
70
192
0
VERTEX
8
DOOR
10
-38.741592
20
-2.675249
30
90.354485
70
192
0
VERTEX
8
DOOR
10
-39.001968
20
-2.676713
30
90.135490
70
192
0
VERTEX
8
DOOR
10
-39.001968
20
-2.676713
30
89.415405
70
192
0
VERTEX
8
DOOR
10
-39.001968
20
-2.676713
30
88.776024
70
192
0
VERTEX
8
DOOR
10
-39.001968
20
-2.676713
30
88.500061
70
192
0
VERTEX
8
DOOR
10
-39.072037
20
-2.675615
30
88.247810
70
192
0
VERTEX
8
DOOR
10
-39.249893
20
-2.676469
30
88.068382
70
192
0
VERTEX
8
DOOR
10
-25.503830
20
5.999176
30
99.000069
70
192
0
VERTEX
8
DOOR
10
-24.996994
20
6.000885
30
99.136726
70
192
0
VERTEX
8
DOOR
10
-24.639816
20
6.000031
30
99.495613
70
192
0
VERTEX
8
DOOR
10
-24.503220
20
6.000153
30
100.000069
70
192
0
VERTEX
8
DOOR
10
-24.639816
20
6.000031
30
100.504524
70
192
0
VERTEX
8
DOOR
10
-24.996994
20
6.000885
30
100.863411
70
192
0
VERTEX
8
DOOR
10
-25.503830
20
5.999176
30
101.000069
70
192
0
VERTEX
8
DOOR
10
-26.008347
20
5.999420
30
100.863411
70
192
0
VERTEX
8
DOOR
10
-26.365158
20
6.000153
30
100.504585
70
192
0
VERTEX
8
DOOR
10
-26.503342
20
5.999665
30
100.000069
70
192
0
VERTEX
8
DOOR
10
-26.365158
20
6.000153
30
99.495552
70
192
0
VERTEX
8
DOOR
10
-26.008347
20
5.999420
30
99.136726
70
192
0
VERTEX
8
DOOR
10
-25.596603
20
6.591705
30
99.000069
70
192
0
VERTEX
8
DOOR
10
-25.114548
20
6.744171
30
99.136726
70
192
0
VERTEX
8
DOOR
10
-24.773117
20
6.852692
30
99.495613
70
192
0
VERTEX
8
DOOR
10
-24.642380
20
6.893341
30
100.000069
70
192
0
VERTEX
8
DOOR
10
-24.773117
20
6.852692
30
100.504524
70
192
0
VERTEX
8
DOOR
10
-25.114792
20
6.744659
30
100.863411
70
192
0
VERTEX
8
DOOR
10
-25.595627
20
6.592682
30
101.000069
70
192
0
VERTEX
8
DOOR
10
-26.078171
20
6.439362
30
100.863411
70
192
0
VERTEX
8
DOOR
10
-26.419235
20
6.332428
30
100.504585
70
192
0
VERTEX
8
DOOR
10
-26.549850
20
6.290436
30
100.000069
70
192
0
VERTEX
8
DOOR
10
-26.419968
20
6.331208
30
99.495552
70
192
0
VERTEX
8
DOOR
10
-26.078171
20
6.439362
30
99.136726
70
192
0
VERTEX
8
DOOR
10
-25.862839
20
7.136383
30
99.000069
70
192
0
VERTEX
8
DOOR
10
-25.448410
20
7.422638
30
99.136726
70
192
0
VERTEX
8
DOOR
10
-25.153854
20
7.626129
30
99.495613
70
192
0
VERTEX
8
DOOR
10
-25.039230
20
7.704987
30
100.000069
70
192
0
VERTEX
8
DOOR
10
-25.153854
20
7.626129
30
100.504524
70
192
0
VERTEX
8
DOOR
10
-25.448410
20
7.422638
30
100.863411
70
192
0
VERTEX
8
DOOR
10
-25.862839
20
7.136383
30
101.000069
70
192
0
VERTEX
8
DOOR
10
-26.277390
20
6.849518
30
100.863411
70
192
0
VERTEX
8
DOOR
10
-26.573776
20
6.644928
30
100.504585
70
192
0
VERTEX
8
DOOR
10
-26.684738
20
6.568512
30
100.000069
70
192
0
VERTEX
8
DOOR
10
-26.573776
20
6.644928
30
99.495552
70
192
0
VERTEX
8
DOOR
10
-26.277390
20
6.849518
30
99.136726
70
192
0
VERTEX
8
DOOR
10
-26.281906
20
7.584625
30
99.000069
70
192
0
VERTEX
8
DOOR
10
-25.972824
20
7.982941
30
99.136726
70
192
0
VERTEX
8
DOOR
10
-25.754807
20
8.265656
30
99.495613
70
192
0
VERTEX
8
DOOR
10
-25.671188
20
8.373566
30
100.000069
70
192
0
VERTEX
8
DOOR
10
-25.754807
20
8.265656
30
100.504524
70
192
0
VERTEX
8
DOOR
10
-25.972824
20
7.982941
30
100.863411
70
192
0
VERTEX
8
DOOR
10
-26.281906
20
7.584625
30
101.000069
70
192
0
VERTEX
8
DOOR
10
-26.593185
20
7.184968
30
100.863411
70
192
0
VERTEX
8
DOOR
10
-26.812790
20
6.901764
30
100.504585
70
192
0
VERTEX
8
DOOR
10
-26.895554
20
6.793488
30
100.000069
70
192
0
VERTEX
8
DOOR
10
-26.812790
20
6.901764
30
99.495552
70
192
0
VERTEX
8
DOOR
10
-26.593185
20
7.184968
30
99.136726
70
192
0
VERTEX
8
DOOR
10
-26.837448
20
7.887604
30
99.000069
70
192
0
VERTEX
8
DOOR
10
-26.671555
20
8.363922
30
99.136726
70
192
0
VERTEX
8
DOOR
10
-26.552414
20
8.703644
30
99.495613
70
192
0
VERTEX
8
DOOR
10
-26.507492
20
8.833038
30
100.000069
70
192
0
VERTEX
8
DOOR
10
-26.552414
20
8.703644
30
100.504524
70
192
0
VERTEX
8
DOOR
10
-26.671555
20
8.363922
30
100.863411
70
192
0
VERTEX
8
DOOR
10
-26.837448
20
7.887604
30
101.000069
70
192
0
VERTEX
8
DOOR
10
-27.001877
20
7.412018
30
100.863411
70
192
0
VERTEX
8
DOOR
10
-27.120529
20
7.072419
30
100.504585
70
192
0
VERTEX
8
DOOR
10
-27.165573
20
6.942902
30
100.000069
70
192
0
VERTEX
8
DOOR
10
-27.120529
20
7.072419
30
99.495552
70
192
0
VERTEX
8
DOOR
10
-27.001877
20
7.412018
30
99.136726
70
192
0
VERTEX
8
DOOR
10
-27.504562
20
7.999665
30
99.000069
70
192
0
VERTEX
8
DOOR
10
-27.461716
20
8.502228
30
99.136726
70
192
0
VERTEX
8
DOOR
10
-27.431931
20
8.860504
30
99.495613
70
192
0
VERTEX
8
DOOR
10
-27.421310
20
8.996124
30
100.000069
70
192
0
VERTEX
8
DOOR
10
-27.431931
20
8.860504
30
100.504524
70
192
0
VERTEX
8
DOOR
10
-27.461716
20
8.502228
30
100.863411
70
192
0
VERTEX
8
DOOR
10
-27.504562
20
7.999665
30
101.000069
70
192
0
VERTEX
8
DOOR
10
-27.546188
20
7.496613
30
100.863411
70
192
0
VERTEX
8
DOOR
10
-27.574631
20
7.140656
30
100.504585
70
192
0
VERTEX
8
DOOR
10
-27.585617
20
7.004059
30
100.000069
70
192
0
VERTEX
8
DOOR
10
-27.574631
20
7.140656
30
99.495552
70
192
0
VERTEX
8
DOOR
10
-27.546188
20
7.496613
30
99.136726
70
192
0
VERTEX
8
DOOR
10
-32.504074
20
7.999787
30
99.000061
70
192
0
VERTEX
8
DOOR
10
-32.502365
20
8.505158
30
99.136719
70
192
0
VERTEX
8
DOOR
10
-32.502365
20
8.863313
30
99.495605
70
192
0
VERTEX
8
DOOR
10
-32.502975
20
9.000031
30
100.000061
70
192
0
VERTEX
8
DOOR
10
-32.502365
20
8.863313
30
100.504517
70
192
0
VERTEX
8
DOOR
10
-32.502365
20
8.505158
30
100.863403
70
192
0
VERTEX
8
DOOR
10
-32.504074
20
7.999787
30
101.000061
70
192
0
VERTEX
8
DOOR
10
-32.502609
20
7.495759
30
100.863403
70
192
0
VERTEX
8
DOOR
10
-32.503708
20
7.136384
30
100.504578
70
192
0
VERTEX
8
DOOR
10
-32.503464
20
6.999787
30
100.000061
70
192
0
VERTEX
8
DOOR
10
-32.503708
20
7.136384
30
99.495544
70
192
0
VERTEX
8
DOOR
10
-32.502609
20
7.495759
30
99.136719
70
192
0
VERTEX
8
DOOR
10
-37.504074
20
8.000047
30
99.000061
70
192
0
VERTEX
8
DOOR
10
-37.546310
20
8.502366
30
99.136719
70
192
0
VERTEX
8
DOOR
10
-37.574387
20
8.860765
30
99.495605
70
192
0
VERTEX
8
DOOR
10
-37.586105
20
8.996873
30
100.000061
70
192
0
VERTEX
8
DOOR
10
-37.574387
20
8.860765
30
100.504517
70
192
0
VERTEX
8
DOOR
10
-37.546310
20
8.502366
30
100.863403
70
192
0
VERTEX
8
DOOR
10
-37.504074
20
8.000047
30
101.000061
70
192
0
VERTEX
8
DOOR
10
-37.460739
20
7.497606
30
100.863403
70
192
0
VERTEX
8
DOOR
10
-37.432297
20
7.139452
30
100.504578
70
192
0
VERTEX
8
DOOR
10
-37.420700
20
7.003343
30
100.000061
70
192
0
VERTEX
8
DOOR
10
-37.432297
20
7.139452
30
99.495544
70
192
0
VERTEX
8
DOOR
10
-37.460739
20
7.497606
30
99.136719
70
192
0
VERTEX
8
DOOR
10
-38.169968
20
7.887376
30
99.000061
70
192
0
VERTEX
8
DOOR
10
-38.335373
20
8.364793
30
99.136719
70
192
0
VERTEX
8
DOOR
10
-38.452560
20
8.704270
30
99.495605
70
192
0
VERTEX
8
DOOR
10
-38.497482
20
8.832932
30
100.000061
70
192
0
VERTEX
8
DOOR
10
-38.452560
20
8.704270
30
100.504517
70
192
0
VERTEX
8
DOOR
10
-38.334518
20
8.364427
30
100.863403
70
192
0
VERTEX
8
DOOR
10
-38.169968
20
7.887376
30
101.000061
70
192
0
VERTEX
8
DOOR
10
-38.003098
20
7.411912
30
100.863403
70
192
0
VERTEX
8
DOOR
10
-37.885666
20
7.072435
30
100.504578
70
192
0
VERTEX
8
DOOR
10
-37.841843
20
6.943529
30
100.000061
70
192
0
VERTEX
8
DOOR
10
-37.886154
20
7.072435
30
99.495544
70
192
0
VERTEX
8
DOOR
10
-38.003098
20
7.411912
30
99.136719
70
192
0
VERTEX
8
DOOR
10
-38.722092
20
7.584276
30
99.000061
70
192
0
VERTEX
8
DOOR
10
-39.032516
20
7.982469
30
99.136719
70
192
0
VERTEX
8
DOOR
10
-39.252731
20
8.265794
30
99.495605
70
192
0
VERTEX
8
DOOR
10
-39.335373
20
8.374681
30
100.000061
70
192
0
VERTEX
8
DOOR
10
-39.252731
20
8.265794
30
100.504517
70
192
0
VERTEX
8
DOOR
10
-39.032516
20
7.982469
30
100.863403
70
192
0
VERTEX
8
DOOR
10
-38.722092
20
7.584276
30
101.000061
70
192
0
VERTEX
8
DOOR
10
-38.412399
20
7.186204
30
100.863403
70
192
0
VERTEX
8
DOOR
10
-38.193649
20
6.902025
30
100.504578
70
192
0
VERTEX
8
DOOR
10
-38.110153
20
6.793748
30
100.000061
70
192
0
VERTEX
8
DOOR
10
-38.194260
20
6.901781
30
99.495544
70
192
0
VERTEX
8
DOOR
10
-38.412399
20
7.186204
30
99.136719
70
192
0
VERTEX
8
DOOR
10
-39.142502
20
7.136400
30
99.000061
70
192
0
VERTEX
8
DOOR
10
-39.558395
20
7.422410
30
99.136719
70
192
0
VERTEX
8
DOOR
10
-39.853439
20
7.626390
30
99.495605
70
192
0
VERTEX
8
DOOR
10
-39.964890
20
7.704515
30
100.000061
70
192
0
VERTEX
8
DOOR
10
-39.853439
20
7.626390
30
100.504517
70
192
0
VERTEX
8
DOOR
10
-39.558884
20
7.421678
30
100.863403
70
192
0
VERTEX
8
DOOR
10
-39.142502
20
7.136400
30
101.000061
70
192
0
VERTEX
8
DOOR
10
-38.728683
20
6.848802
30
100.863403
70
192
0
VERTEX
8
DOOR
10
-38.434494
20
6.644334
30
100.504578
70
192
0
VERTEX
8
DOOR
10
-38.319138
20
6.568040
30
100.000061
70
192
0
VERTEX
8
DOOR
10
-38.434494
20
6.644334
30
99.495544
70
192
0
VERTEX
8
DOOR
10
-38.728683
20
6.848802
30
99.136719
70
192
0
VERTEX
8
DOOR
10
-39.409470
20
6.592088
30
99.000061
70
192
0
VERTEX
8
DOOR
10
-39.890671
20
6.743944
30
99.136719
70
192
0
VERTEX
8
DOOR
10
-40.232834
20
6.852220
30
99.495605
70
192
0
VERTEX
8
DOOR
10
-40.362961
20
6.893480
30
100.000061
70
192
0
VERTEX
8
DOOR
10
-40.232834
20
6.852220
30
100.504517
70
192
0
VERTEX
8
DOOR
10
-39.890671
20
6.743944
30
100.863403
70
192
0
VERTEX
8
DOOR
10
-39.409470
20
6.592088
30
101.000061
70
192
0
VERTEX
8
DOOR
10
-38.927170
20
6.440599
30
100.863403
70
192
0
VERTEX
8
DOOR
10
-38.585617
20
6.331956
30
100.504578
70
192
0
VERTEX
8
DOOR
10
-38.456955
20
6.290330
30
100.000061
70
192
0
VERTEX
8
DOOR
10
-38.585739
20
6.332078
30
99.495544
70
192
0
VERTEX
8
DOOR
10
-38.927170
20
6.440599
30
99.136719
70
192
0
VERTEX
8
DOOR
10
-39.502365
20
6.000413
30
99.000061
70
192
0
VERTEX
8
DOOR
10
-40.004196
20
6.040086
30
99.136719
70
192
0
VERTEX
8
DOOR
10
-40.363205
20
6.067430
30
99.495605
70
192
0
VERTEX
8
DOOR
10
-40.500168
20
6.077562
30
100.000061
70
192
0
VERTEX
8
DOOR
10
-40.363205
20
6.067430
30
100.504517
70
192
0
VERTEX
8
DOOR
10
-40.004196
20
6.040086
30
100.863403
70
192
0
VERTEX
8
DOOR
10
-39.502365
20
6.000413
30
101.000061
70
192
0
VERTEX
8
DOOR
10
-38.999313
20
5.961229
30
100.863403
70
192
0
VERTEX
8
DOOR
10
-38.642502
20
5.932420
30
100.504578
70
192
0
VERTEX
8
DOOR
10
-38.505051
20
5.921922
30
100.000061
70
192
0
VERTEX
8
DOOR
10
-38.643112
20
5.931810
30
99.495544
70
192
0
VERTEX
8
DOOR
10
-38.999313
20
5.961229
30
99.136719
70
192
0
VERTEX
8
DOOR
10
-39.502121
20
2.999925
30
99.000061
70
192
0
VERTEX
8
DOOR
10
-40.006516
20
3.000535
30
99.136719
70
192
0
VERTEX
8
DOOR
10
-40.366257
20
3.000169
30
99.495605
70
192
0
VERTEX
8
DOOR
10
-40.502121
20
3.000413
30
100.000061
70
192
0
VERTEX
8
DOOR
10
-40.366257
20
3.000169
30
100.504517
70
192
0
VERTEX
8
DOOR
10
-40.007980
20
2.999559
30
100.863403
70
192
0
VERTEX
8
DOOR
10
-39.502121
20
2.999925
30
101.000061
70
192
0
VERTEX
8
DOOR
10
-38.997360
20
2.999925
30
100.863403
70
192
0
VERTEX
8
DOOR
10
-38.638840
20
2.999925
30
100.504578
70
192
0
VERTEX
8
DOOR
10
-38.503952
20
2.999559
30
100.000061
70
192
0
VERTEX
8
DOOR
10
-38.638840
20
2.999925
30
99.495544
70
192
0
VERTEX
8
DOOR
10
-38.997360
20
2.999925
30
99.136719
70
192
0
VERTEX
8
DOOR
10
-39.501633
20
2.000047
30
103.000061
70
192
0
VERTEX
8
DOOR
10
-41.002365
20
2.000291
30
102.598137
70
192
0
VERTEX
8
DOOR
10
-42.100143
20
2.000414
30
101.500061
70
192
0
VERTEX
8
DOOR
10
-42.502243
20
2.000170
30
100.000061
70
192
0
VERTEX
8
DOOR
10
-42.100143
20
2.000414
30
98.500061
70
192
0
VERTEX
8
DOOR
10
-41.002365
20
2.000291
30
97.401985
70
192
0
VERTEX
8
DOOR
10
-39.501633
20
2.000047
30
97.000061
70
192
0
VERTEX
8
DOOR
10
-38.002365
20
2.000291
30
97.401985
70
192
0
VERTEX
8
DOOR
10
-36.906296
20
1.999070
30
98.500061
70
192
0
VERTEX
8
DOOR
10
-36.501877
20
2.000047
30
100.000061
70
192
0
VERTEX
8
DOOR
10
-36.906296
20
1.999070
30
101.500061
70
192
0
VERTEX
8
DOOR
10
-38.002365
20
2.000291
30
102.598137
70
192
0
VERTEX
8
DOOR
10
-39.502853
20
2.500169
30
103.000061
70
192
0
VERTEX
8
DOOR
10
-41.001999
20
2.500535
30
102.598137
70
192
0
VERTEX
8
DOOR
10
-42.100388
20
2.500658
30
101.500061
70
192
0
VERTEX
8
DOOR
10
-42.502853
20
2.500047
30
100.000061
70
192
0
VERTEX
8
DOOR
10
-42.100388
20
2.500658
30
98.500061
70
192
0
VERTEX
8
DOOR
10
-41.001999
20
2.500535
30
97.401985
70
192
0
VERTEX
8
DOOR
10
-39.502853
20
2.500169
30
97.000061
70
192
0
VERTEX
8
DOOR
10
-38.002853
20
2.499925
30
97.401985
70
192
0
VERTEX
8
DOOR
10
-36.904953
20
2.500047
30
98.500061
70
192
0
VERTEX
8
DOOR
10
-36.501877
20
2.500169
30
100.000061
70
192
0
VERTEX
8
DOOR
10
-36.904953
20
2.500047
30
101.500061
70
192
0
VERTEX
8
DOOR
10
-38.003830
20
2.499437
30
102.598137
70
192
0
VERTEX
8
DOOR
10
-39.502121
20
2.999925
30
101.142105
70
192
0
VERTEX
8
DOOR
10
-40.074020
20
3.000047
30
100.989098
70
192
0
VERTEX
8
DOOR
10
-40.493210
20
2.999437
30
100.571083
70
192
0
VERTEX
8
DOOR
10
-40.644333
20
3.000535
30
100.000061
70
192
0
VERTEX
8
DOOR
10
-40.493210
20
2.999437
30
99.429039
70
192
0
VERTEX
8
DOOR
10
-40.074020
20
3.000047
30
99.011017
70
192
0
VERTEX
8
DOOR
10
-39.502121
20
2.999925
30
98.858017
70
192
0
VERTEX
8
DOOR
10
-38.931564
20
2.999803
30
99.011017
70
192
0
VERTEX
8
DOOR
10
-38.514206
20
2.999437
30
99.429039
70
192
0
VERTEX
8
DOOR
10
-38.361496
20
3.000047
30
100.000061
70
192
0
VERTEX
8
DOOR
10
-38.514206
20
2.999437
30
100.571083
70
192
0
VERTEX
8
DOOR
10
-38.931564
20
2.999803
30
100.989098
70
192
0
VERTEX
8
DOOR
10
-39.502121
20
2.999925
30
100.000061
70
192
0
VERTEX
8
DOOR
10
-39.501633
20
2.000047
30
93.000061
70
192
0
VERTEX
8
DOOR
10
-41.002365
20
2.000291
30
92.598137
70
192
0
VERTEX
8
DOOR
10
-42.100143
20
2.000414
30
91.500061
70
192
0
VERTEX
8
DOOR
10
-42.502243
20
2.000170
30
90.000061
70
192
0
VERTEX
8
DOOR
10
-42.100143
20
2.000414
30
88.500061
70
192
0
VERTEX
8
DOOR
10
-41.002365
20
2.000291
30
87.401985
70
192
0
VERTEX
8
DOOR
10
-39.501633
20
2.000047
30
87.000061
70
192
0
VERTEX
8
DOOR
10
-38.003586
20
1.999681
30
87.401985
70
192
0
VERTEX
8
DOOR
10
-36.906296
20
1.999070
30
88.500061
70
192
0
VERTEX
8
DOOR
10
-36.501755
20
2.000169
30
90.000061
70
192
0
VERTEX
8
DOOR
10
-36.906296
20
1.999070
30
91.500061
70
192
0
VERTEX
8
DOOR
10
-38.003586
20
1.999681
30
92.598137
70
192
0
VERTEX
8
DOOR
10
-39.502853
20
2.500169
30
93.000061
70
192
0
VERTEX
8
DOOR
10
-41.001999
20
2.500535
30
92.598137
70
192
0
VERTEX
8
DOOR
10
-42.100388
20
2.500658
30
91.500061
70
192
0
VERTEX
8
DOOR
10
-42.502853
20
2.500047
30
90.000061
70
192
0
VERTEX
8
DOOR
10
-42.100388
20
2.500658
30
88.500061
70
192
0
VERTEX
8
DOOR
10
-41.001999
20
2.500551
30
87.401985
70
192
0
VERTEX
8
DOOR
10
-39.502853
20
2.500169
30
87.000061
70
192
0
VERTEX
8
DOOR
10
-38.002853
20
2.499940
30
87.401985
70
192
0
VERTEX
8
DOOR
10
-36.904953
20
2.500047
30
88.500061
70
192
0
VERTEX
8
DOOR
10
-36.501877
20
2.500169
30
90.000061
70
192
0
VERTEX
8
DOOR
10
-36.904953
20
2.500047
30
91.500061
70
192
0
VERTEX
8
DOOR
10
-38.002853
20
2.499925
30
92.598137
70
192
0
VERTEX
8
DOOR
10
-39.502853
20
2.500169
30
90.000061
70
192
0
VERTEX
8
DOOR
10
-39.501877
20
2.674806
30
88.000061
70
192
0
VERTEX
8
DOOR
10
-39.756271
20
2.673707
30
88.068382
70
192
0
VERTEX
8
DOOR
10
-39.934982
20
2.674318
30
88.247810
70
192
0
VERTEX
8
DOOR
10
-40.003708
20
2.673830
30
88.500061
70
192
0
VERTEX
8
DOOR
10
-40.003708
20
2.673830
30
88.776016
70
192
0
VERTEX
8
DOOR
10
-40.003708
20
2.673830
30
89.415405
70
192
0
VERTEX
8
DOOR
10
-40.003708
20
2.673830
30
90.135483
70
192
0
VERTEX
8
DOOR
10
-40.264572
20
2.674440
30
90.354477
70
192
0
VERTEX
8
DOOR
10
-40.439011
20
2.674562
30
90.650177
70
192
0
VERTEX
8
DOOR
10
-40.504318
20
2.673219
30
91.000061
70
192
0
VERTEX
8
DOOR
10
-40.367477
20
2.673707
30
91.504562
70
192
0
VERTEX
8
DOOR
10
-40.007858
20
2.673830
30
91.863426
70
192
0
VERTEX
8
DOOR
10
-39.501877
20
2.674806
30
92.000061
70
192
0
VERTEX
8
DOOR
10
-38.999313
20
2.673952
30
91.863419
70
192
0
VERTEX
8
DOOR
10
-38.639694
20
2.674318
30
91.504562
70
192
0
VERTEX
8
DOOR
10
-38.501877
20
2.674440
30
91.000061
70
192
0
VERTEX
8
DOOR
10
-38.566574
20
2.674562
30
90.650177
70
192
0
VERTEX
8
DOOR
10
-38.741623
20
2.673341
30
90.354485
70
192
0
VERTEX
8
DOOR
10
-39.001999
20
2.674806
30
90.135490
70
192
0
VERTEX
8
DOOR
10
-39.001999
20
2.674806
30
89.415405
70
192
0
VERTEX
8
DOOR
10
-39.001999
20
2.674806
30
88.776024
70
192
0
VERTEX
8
DOOR
10
-39.001999
20
2.674806
30
88.500061
70
192
0
VERTEX
8
DOOR
10
-39.072067
20
2.673707
30
88.247810
70
192
0
VERTEX
8
DOOR
10
-39.249924
20
2.674562
30
88.068382
70
192
0
VERTEX
8
DOOR
10
0
20
0
30
0
70
128
71
1
72
2
73
-3
0
VERTEX
8
DOOR
10
0
20
0
30
0
70
128
71
-1
72
3
73
4
0
VERTEX
8
DOOR
10
0
20
0
30
0
70
128
71
1
72
5
73
-6
0
VERTEX
8
DOOR
10
0
20
0
30
0
70
128
71
-1
72
6
73
2
0
VERTEX
8
DOOR
10
0
20
0
30
0
70
128
71
2
72
6
73
-7
0
VERTEX
8
DOOR
10
0
20
0
30
0
70
128
71
-2
72
7
73
3
0
VERTEX
8
DOOR
10
0
20
0
30
0
70
128
71
3
72
7
73
-8
0
VERTEX
8
DOOR
10
0
20
0
30
0
70
128
71
-3
72
8
73
4
0
VERTEX
8
DOOR
10
0
20
0
30
0
70
128
71
4
72
8
73
-5
0
VERTEX
8
DOOR
10
0
20
0
30
0
70
128
71
-4
72
5
73
1
0
VERTEX
8
DOOR
10
0
20
0
30
0
70
128
71
5
72
8
73
-7
0
VERTEX
8
DOOR
10
0
20
0
30
0
70
128
71
-5
72
7
73
6
0
VERTEX
8
DOOR
10
0
20
0
30
0
70
128
71
16
72
15
73
-14
0
VERTEX
8
DOOR
10
0
20
0
30
0
70
128
71
-16
72
14
73
-13
0
VERTEX
8
DOOR
10
0
20
0
30
0
70
128
71
-16
72
13
73
-12
0
VERTEX
8
DOOR
10
0
20
0
30
0
70
128
71
-16
72
12
73
-11
0
VERTEX
8
DOOR
10
0
20
0
30
0
70
128
71
-16
72
11
73
-10
0
VERTEX
8
DOOR
10
0
20
0
30
0
70
128
71
-16
72
10
73
-9
0
VERTEX
8
DOOR
10
0
20
0
30
0
70
128
71
-16
72
9
73
-20
0
VERTEX
8
DOOR
10
0
20
0
30
0
70
128
71
-16
72
20
73
-19
0
VERTEX
8
DOOR
10
0
20
0
30
0
70
128
71
-16
72
19
73
-18
0
VERTEX
8
DOOR
10
0
20
0
30
0
70
128
71
-16
72
18
73
17
0
VERTEX
8
DOOR
10
0
20
0
30
0
70
128
71
9
72
10
73
-22
0
VERTEX
8
DOOR
10
0
20
0
30
0
70
128
71
-9
72
22
73
21
0
VERTEX
8
DOOR
10
0
20
0
30
0
70
128
71
10
72
11
73
-23
0
VERTEX
8
DOOR
10
0
20
0
30
0
70
128
71
-10
72
23
73
22
0
VERTEX
8
DOOR
10
0
20
0
30
0
70
128
71
11
72
12
73
-24
0
VERTEX
8
DOOR
10
0
20
0
30
0
70
128
71
-11
72
24
73
23
0
VERTEX
8
DOOR
10
0
20
0
30
0
70
128
71
12
72
13
73
-25
0
VERTEX
8
DOOR
10
0
20
0
30
0
70
128
71
-12
72
25
73
24
0
VERTEX
8
DOOR
10
0
20
0
30
0
70
128
71
13
72
14
73
-26
0
VERTEX
8
DOOR
10
0
20
0
30
0
70
128
71
-13
72
26
73
25
0
VERTEX
8
DOOR
10
0
20
0
30
0
70
128
71
14
72
15
73
-27
0
VERTEX
8
DOOR
10
0
20
0
30
0
70
128
71
-14
72
27
73
26
0
VERTEX
8
DOOR
10
0
20
0
30
0
70
128
71
15
72
16
73
-28
0
VERTEX
8
DOOR
10
0
20
0
30
0
70
128
71
-15
72
28
73
27
0
VERTEX
8
DOOR
10
0
20
0
30
0
70
128
71
16
72
17
73
-29
0
VERTEX
8
DOOR
10
0
20
0
30
0
70
128
71
-16
72
29
73
28
0
VERTEX
8
DOOR
10
0
20
0
30
0
70
128
71
17
72
18
73
-30
0
VERTEX
8
DOOR
10
0
20
0
30
0
70
128
71
-17
72
30
73
29
0
VERTEX
8
DOOR
10
0
20
0
30
0
70
128
71
18
72
19
73
-31
0
VERTEX
8
DOOR
10
0
20
0
30
0
70
128
71
-18
72
31
73
30
0
VERTEX
8
DOOR
10
0
20
0
30
0
70
128
71
19
72
20
73
-32
0
VERTEX
8
DOOR
10
0
20
0
30
0
70
128
71
-19
72
32
73
31
0
VERTEX
8
DOOR
10
0
20
0
30
0
70
128
71
20
72
9
73
-21
0
VERTEX
8
DOOR
10
0
20
0
30
0
70
128
71
-20
72
21
73
32
0
VERTEX
8
DOOR
10
0
20
0
30
0
70
128
71
21
72
22
73
-34
0
VERTEX
8
DOOR
10
0
20
0
30
0
70
128
71
-21
72
34
73
33
0
VERTEX
8
DOOR
10
0
20
0
30
0
70
128
71
22
72
23
73
-35
0
VERTEX
8
DOOR
10
0
20
0
30
0
70
128
71
-22
72
35
73
34
0
VERTEX
8
DOOR
10
0
20
0
30
0
70
128
71
23
72
24
73
-36
0
VERTEX
8
DOOR
10
0
20
0
30
0
70
128
71
-23
72
36
73
35
0
VERTEX
8
DOOR
10
0
20
0
30
0
70
128
71
24
72
25
73
-37
0
VERTEX
8
DOOR
10
0
20
0
30
0
70
128
71
-24
72
37
73
36
0
VERTEX
8
DOOR
10
0
20
0
30
0
70
128
71
25
72
26
73
-38
0
VERTEX
8
DOOR
10
0
20
0
30
0
70
128
71
-25
72
38
73
37
0
VERTEX
8
DOOR
10
0
20
0
30
0
70
128
71
26
72
27
73
-39
0
VERTEX
8
DOOR
10
0
20
0
30
0
70
128
71
-26
72
39
73
38
0
VERTEX
8
DOOR
10
0
20
0
30
0
70
128
71
27
72
28
73
-40
0
VERTEX
8
DOOR
10
0
20
0
30
0
70
128
71
-27
72
40
73
39
0
VERTEX
8
DOOR
10
0
20
0
30
0
70
128
71
28
72
29
73
-41
0
VERTEX
8
DOOR
10
0
20
0
30
0
70
128
71
-28
72
41
73
40
0
VERTEX
8
DOOR
10
0
20
0
30
0
70
128
71
29
72
30
73
-42
0
VERTEX
8
DOOR
10
0
20
0
30
0
70
128
71
-29
72
42
73
41
0
VERTEX
8
DOOR
10
0
20
0
30
0
70
128
71
30
72
31
73
-43
0
VERTEX
8
DOOR
10
0
20
0
30
0
70
128
71
-30
72
43
73
42
0
VERTEX
8
DOOR
10
0
20
0
30
0
70
128
71
31
72
32
73
-44
0
VERTEX
8
DOOR
10
0
20
0
30
0
70
128
71
-31
72
44
73
43
0
VERTEX
8
DOOR
10
0
20
0
30
0
70
128
71
32
72
21
73
-33
0
VERTEX
8
DOOR
10
0
20
0
30
0
70
128
71
-32
72
33
73
44
0
VERTEX
8
DOOR
10
0
20
0
30
0
70
128
71
33
72
34
73
-46
0
VERTEX
8
DOOR
10
0
20
0
30
0
70
128
71
-33
72
46
73
45
0
VERTEX
8
DOOR
10
0
20
0
30
0
70
128
71
34
72
35
73
-47
0
VERTEX
8
DOOR
10
0
20
0
30
0
70
128
71
-34
72
47
73
46
0
VERTEX
8
DOOR
10
0
20
0
30
0
70
128
71
35
72
36
73
-48
0
VERTEX
8
DOOR
10
0
20
0
30
0
70
128
71
-35
72
48
73
47
0
VERTEX
8
DOOR
10
0
20
0
30
0
70
128
71
36
72
37
73
-49
0
VERTEX
8
DOOR
10
0
20
0
30
0
70
128
71
-36
72
49
73
48
0
VERTEX
8
DOOR
10
0
20
0
30
0
70
128
71
37
72
38
73
-50
0
VERTEX
8
DOOR
10
0
20
0
30
0
70
128
71
-37
72
50
73
49
0
VERTEX
8
DOOR
10
0
20
0
30
0
70
128
71
38
72
39
73
-51
0
VERTEX
8
DOOR
10
0
20
0
30
0
70
128
71
-38
72
51
73
50
0
VERTEX
8
DOOR
10
0
20
0
30
0
70
128
71
39
72
40
73
-52
0
VERTEX
8
DOOR
10
0
20
0
30
0
70
128
71
-39
72
52
73
51
0
VERTEX
8
DOOR
10
0
20
0
30
0
70
128
71
40
72
41
73
-53
0
VERTEX
8
DOOR
10
0
20
0
30
0
70
128
71
-40
72
53
73
52
0
VERTEX
8
DOOR
10
0
20
0
30
0
70
128
71
41
72
42
73
-54
0
VERTEX
8
DOOR
10
0
20
0
30
0
70
128
71
-41
72
54
73
53
0
VERTEX
8
DOOR
10
0
20
0
30
0
70
128
71
42
72
43
73
-55
0
VERTEX
8
DOOR
10
0
20
0
30
0
70
128
71
-42
72
55
73
54
0
VERTEX
8
DOOR
10
0
20
0
30
0
70
128
71
43
72
44
73
-56
0
VERTEX
8
DOOR
10
0
20
0
30
0
70
128
71
-43
72
56
73
55
0
VERTEX
8
DOOR
10
0
20
0
30
0
70
128
71
44
72
33
73
-45
0
VERTEX
8
DOOR
10
0
20
0
30
0
70
128
71
-44
72
45
73
56
0
VERTEX
8
DOOR
10
0
20
0
30
0
70
128
71
45
72
46
73
-58
0
VERTEX
8
DOOR
10
0
20
0
30
0
70
128
71
-45
72
58
73
57
0
VERTEX
8
DOOR
10
0
20
0
30
0
70
128
71
46
72
47
73
-59
0
VERTEX
8
DOOR
10
0
20
0
30
0
70
128
71
-46
72
59
73
58
0
VERTEX
8
DOOR
10
0
20
0
30
0
70
128
71
47
72
48
73
-60
0
VERTEX
8
DOOR
10
0
20
0
30
0
70
128
71
-47
72
60
73
59
0
VERTEX
8
DOOR
10
0
20
0
30
0
70
128
71
48
72
49
73
-61
0
VERTEX
8
DOOR
10
0
20
0
30
0
70
128
71
-48
72
61
73
60
0
VERTEX
8
DOOR
10
0
20
0
30
0
70
128
71
49
72
50
73
-62
0
VERTEX
8
DOOR
10
0
20
0
30
0
70
128
71
-49
72
62
73
61
0
VERTEX
8
DOOR
10
0
20
0
30
0
70
128
71
50
72
51
73
-63
0
VERTEX
8
DOOR
10
0
20
0
30
0
70
128
71
-50
72
63
73
62
0
VERTEX
8
DOOR
10
0
20
0
30
0
70
128
71
51
72
52
73
-64
0
VERTEX
8
DOOR
10
0
20
0
30
0
70
128
71
-51
72
64
73
63
0
VERTEX
8
DOOR
10
0
20
0
30
0
70
128
71
52
72
53
73
-65
0
VERTEX
8
DOOR
10
0
20
0
30
0
70
128
71
-52
72
65
73
64
0
VERTEX
8
DOOR
10
0
20
0
30
0
70
128
71
53
72
54
73
-66
0
VERTEX
8
DOOR
10
0
20
0
30
0
70
128
71
-53
72
66
73
65
0
VERTEX
8
DOOR
10
0
20
0
30
0
70
128
71
54
72
55
73
-67
0
VERTEX
8
DOOR
10
0
20
0
30
0
70
128
71
-54
72
67
73
66
0
VERTEX
8
DOOR
10
0
20
0
30
0
70
128
71
55
72
56
73
-68
0
VERTEX
8
DOOR
10
0
20
0
30
0
70
128
71
-55
72
68
73
67
0
VERTEX
8
DOOR
10
0
20
0
30
0
70
128
71
56
72
45
73
-57
0
VERTEX
8
DOOR
10
0
20
0
30
0
70
128
71
-56
72
57
73
68
0
VERTEX
8
DOOR
10
0
20
0
30
0
70
128
71
57
72
58
73
-70
0
VERTEX
8
DOOR
10
0
20
0
30
0
70
128
71
-57
72
70
73
69
0
VERTEX
8
DOOR
10
0
20
0
30
0
70
128
71
58
72
59
73
-71
0
VERTEX
8
DOOR
10
0
20
0
30
0
70
128
71
-58
72
71
73
70
0
VERTEX
8
DOOR
10
0
20
0
30
0
70
128
71
59
72
60
73
-72
0
VERTEX
8
DOOR
10
0
20
0
30
0
70
128
71
-59
72
72
73
71
0
VERTEX
8
DOOR
10
0
20
0
30
0
70
128
71
60
72
61
73
-73
0
VERTEX
8
DOOR
10
0
20
0
30
0
70
128
71
-60
72
73
73
72
0
VERTEX
8
DOOR
10
0
20
0
30
0
70
128
71
61
72
62
73
-74
0
VERTEX
8
DOOR
10
0
20
0
30
0
70
128
71
-61
72
74
73
73
0
VERTEX
8
DOOR
10
0
20
0
30
0
70
128
71
62
72
63
73
-75
0
VERTEX
8
DOOR
10
0
20
0
30
0
70
128
71
-62
72
75
73
74
0
VERTEX
8
DOOR
10
0
20
0
30
0
70
128
71
63
72
64
73
-76
0
VERTEX
8
DOOR
10
0
20
0
30
0
70
128
71
-63
72
76
73
75
0
VERTEX
8
DOOR
10
0
20
0
30
0
70
128
71
64
72
65
73
-77
0
VERTEX
8
DOOR
10
0
20
0
30
0
70
128
71
-64
72
77
73
76
0
VERTEX
8
DOOR
10
0
20
0
30
0
70
128
71
65
72
66
73
-78
0
VERTEX
8
DOOR
10
0
20
0
30
0
70
128
71
-65
72
78
73
77
0
VERTEX
8
DOOR
10
0
20
0
30
0
70
128
71
66
72
67
73
-79
0
VERTEX
8
DOOR
10
0
20
0
30
0
70
128
71
-66
72
79
73
78
0
VERTEX
8
DOOR
10
0
20
0
30
0
70
128
71
67
72
68
73
-80
0
VERTEX
8
DOOR
10
0
20
0
30
0
70
128
71
-67
72
80
73
79
0
VERTEX
8
DOOR
10
0
20
0
30
0
70
128
71
68
72
57
73
-69
0
VERTEX
8
DOOR
10
0
20
0
30
0
70
128
71
-68
72
69
73
80
0
VERTEX
8
DOOR
10
0
20
0
30
0
70
128
71
69
72
70
73
-82
0
VERTEX
8
DOOR
10
0
20
0
30
0
70
128
71
-69
72
82
73
81
0
VERTEX
8
DOOR
10
0
20
0
30
0
70
128
71
70
72
71
73
-83
0
VERTEX
8
DOOR
10
0
20
0
30
0
70
128
71
-70
72
83
73
82
0
VERTEX
8
DOOR
10
0
20
0
30
0
70
128
71
71
72
72
73
-84
0
VERTEX
8
DOOR
10
0
20
0
30
0
70
128
71
-71
72
84
73
83
0
VERTEX
8
DOOR
10
0
20
0
30
0
70
128
71
72
72
73
73
-85
0
VERTEX
8
DOOR
10
0
20
0
30
0
70
128
71
-72
72
85
73
84
0
VERTEX
8
DOOR
10
0
20
0
30
0
70
128
71
73
72
74
73
-86
0
VERTEX
8
DOOR
10
0
20
0
30
0
70
128
71
-73
72
86
73
85
0
VERTEX
8
DOOR
10
0
20
0
30
0
70
128
71
74
72
75
73
-87
0
VERTEX
8
DOOR
10
0
20
0
30
0
70
128
71
-74
72
87
73
86
0
VERTEX
8
DOOR
10
0
20
0
30
0
70
128
71
75
72
76
73
-88
0
VERTEX
8
DOOR
10
0
20
0
30
0
70
128
71
-75
72
88
73
87
0
VERTEX
8
DOOR
10
0
20
0
30
0
70
128
71
76
72
77
73
-89
0
VERTEX
8
DOOR
10
0
20
0
30
0
70
128
71
-76
72
89
73
88
0
VERTEX
8
DOOR
10
0
20
0
30
0
70
128
71
77
72
78
73
-90
0
VERTEX
8
DOOR
10
0
20
0
30
0
70
128
71
-77
72
90
73
89
0
VERTEX
8
DOOR
10
0
20
0
30
0
70
128
71
78
72
79
73
-91
0
VERTEX
8
DOOR
10
0
20
0
30
0
70
128
71
-78
72
91
73
90
0
VERTEX
8
DOOR
10
0
20
0
30
0
70
128
71
79
72
80
73
-92
0
VERTEX
8
DOOR
10
0
20
0
30
0
70
128
71
-79
72
92
73
91
0
VERTEX
8
DOOR
10
0
20
0
30
0
70
128
71
80
72
69
73
-81
0
VERTEX
8
DOOR
10
0
20
0
30
0
70
128
71
-80
72
81
73
92
0
VERTEX
8
DOOR
10
0
20
0
30
0
70
128
71
81
72
82
73
-94
0
VERTEX
8
DOOR
10
0
20
0
30
0
70
128
71
-81
72
94
73
93
0
VERTEX
8
DOOR
10
0
20
0
30
0
70
128
71
82
72
83
73
-95
0
VERTEX
8
DOOR
10
0
20
0
30
0
70
128
71
-82
72
95
73
94
0
VERTEX
8
DOOR
10
0
20
0
30
0
70
128
71
83
72
84
73
-96
0
VERTEX
8
DOOR
10
0
20
0
30
0
70
128
71
-83
72
96
73
95
0
VERTEX
8
DOOR
10
0
20
0
30
0
70
128
71
84
72
85
73
-97
0
VERTEX
8
DOOR
10
0
20
0
30
0
70
128
71
-84
72
97
73
96
0
VERTEX
8
DOOR
10
0
20
0
30
0
70
128
71
85
72
86
73
-98
0
VERTEX
8
DOOR
10
0
20
0
30
0
70
128
71
-85
72
98
73
97
0
VERTEX
8
DOOR
10
0
20
0
30
0
70
128
71
86
72
87
73
-99
0
VERTEX
8
DOOR
10
0
20
0
30
0
70
128
71
-86
72
99
73
98
0
VERTEX
8
DOOR
10
0
20
0
30
0
70
128
71
87
72
88
73
-100
0
VERTEX
8
DOOR
10
0
20
0
30
0
70
128
71
-87
72
100
73
99
0
VERTEX
8
DOOR
10
0
20
0
30
0
70
128
71
88
72
89
73
-101
0
VERTEX
8
DOOR
10
0
20
0
30
0
70
128
71
-88
72
101
73
100
0
VERTEX
8
DOOR
10
0
20
0
30
0
70
128
71
89
72
90
73
-102
0
VERTEX
8
DOOR
10
0
20
0
30
0
70
128
71
-89
72
102
73
101
0
VERTEX
8
DOOR
10
0
20
0
30
0
70
128
71
90
72
91
73
-103
0
VERTEX
8
DOOR
10
0
20
0
30
0
70
128
71
-90
72
103
73
102
0
VERTEX
8
DOOR
10
0
20
0
30
0
70
128
71
91
72
92
73
-104
0
VERTEX
8
DOOR
10
0
20
0
30
0
70
128
71
-91
72
104
73
103
0
VERTEX
8
DOOR
10
0
20
0
30
0
70
128
71
92
72
81
73
-93
0
VERTEX
8
DOOR
10
0
20
0
30
0
70
128
71
-92
72
93
73
104
0
VERTEX
8
DOOR
10
0
20
0
30
0
70
128
71
93
72
94
73
-106
0
VERTEX
8
DOOR
10
0
20
0
30
0
70
128
71
-93
72
106
73
105
0
VERTEX
8
DOOR
10
0
20
0
30
0
70
128
71
94
72
95
73
-107
0
VERTEX
8
DOOR
10
0
20
0
30
0
70
128
71
-94
72
107
73
106
0
VERTEX
8
DOOR
10
0
20
0
30
0
70
128
71
95
72
96
73
-108
0
VERTEX
8
DOOR
10
0
20
0
30
0
70
128
71
-95
72
108
73
107
0
VERTEX
8
DOOR
10
0
20
0
30
0
70
128
71
96
72
97
73
-109
0
VERTEX
8
DOOR
10
0
20
0
30
0
70
128
71
-96
72
109
73
108
0
VERTEX
8
DOOR
10
0
20
0
30
0
70
128
71
97
72
98
73
-110
0
VERTEX
8
DOOR
10
0
20
0
30
0
70
128
71
-97
72
110
73
109
0
VERTEX
8
DOOR
10
0
20
0
30
0
70
128
71
98
72
99
73
-111
0
VERTEX
8
DOOR
10
0
20
0
30
0
70
128
71
-98
72
111
73
110
0
VERTEX
8
DOOR
10
0
20
0
30
0
70
128
71
99
72
100
73
-112
0
VERTEX
8
DOOR
10
0
20
0
30
0
70
128
71
-99
72
112
73
111
0
VERTEX
8
DOOR
10
0
20
0
30
0
70
128
71
100
72
101
73
-113
0
VERTEX
8
DOOR
10
0
20
0
30
0
70
128
71
-100
72
113
73
112
0
VERTEX
8
DOOR
10
0
20
0
30
0
70
128
71
101
72
102
73
-114
0
VERTEX
8
DOOR
10
0
20
0
30
0
70
128
71
-101
72
114
73
113
0
VERTEX
8
DOOR
10
0
20
0
30
0
70
128
71
102
72
103
73
-115
0
VERTEX
8
DOOR
10
0
20
0
30
0
70
128
71
-102
72
115
73
114
0
VERTEX
8
DOOR
10
0
20
0
30
0
70
128
71
103
72
104
73
-116
0
VERTEX
8
DOOR
10
0
20
0
30
0
70
128
71
-103
72
116
73
115
0
VERTEX
8
DOOR
10
0
20
0
30
0
70
128
71
104
72
93
73
-105
0
VERTEX
8
DOOR
10
0
20
0
30
0
70
128
71
-104
72
105
73
116
0
VERTEX
8
DOOR
10
0
20
0
30
0
70
128
71
105
72
106
73
-118
0
VERTEX
8
DOOR
10
0
20
0
30
0
70
128
71
-105
72
118
73
117
0
VERTEX
8
DOOR
10
0
20
0
30
0
70
128
71
106
72
107
73
-119
0
VERTEX
8
DOOR
10
0
20
0
30
0
70
128
71
-106
72
119
73
118
0
VERTEX
8
DOOR
10
0
20
0
30
0
70
128
71
107
72
108
73
-120
0
VERTEX
8
DOOR
10
0
20
0
30
0
70
128
71
-107
72
120
73
119
0
VERTEX
8
DOOR
10
0
20
0
30
0
70
128
71
108
72
109
73
-121
0
VERTEX
8
DOOR
10
0
20
0
30
0
70
128
71
-108
72
121
73
120
0
VERTEX
8
DOOR
10
0
20
0
30
0
70
128
71
109
72
110
73
-122
0
VERTEX
8
DOOR
10
0
20
0
30
0
70
128
71
-109
72
122
73
121
0
VERTEX
8
DOOR
10
0
20
0
30
0
70
128
71
110
72
111
73
-123
0
VERTEX
8
DOOR
10
0
20
0
30
0
70
128
71
-110
72
123
73
122
0
VERTEX
8
DOOR
10
0
20
0
30
0
70
128
71
111
72
112
73
-124
0
VERTEX
8
DOOR
10
0
20
0
30
0
70
128
71
-111
72
124
73
123
0
VERTEX
8
DOOR
10
0
20
0
30
0
70
128
71
112
72
113
73
-125
0
VERTEX
8
DOOR
10
0
20
0
30
0
70
128
71
-112
72
125
73
124
0
VERTEX
8
DOOR
10
0
20
0
30
0
70
128
71
113
72
114
73
-126
0
VERTEX
8
DOOR
10
0
20
0
30
0
70
128
71
-113
72
126
73
125
0
VERTEX
8
DOOR
10
0
20
0
30
0
70
128
71
114
72
115
73
-127
0
VERTEX
8
DOOR
10
0
20
0
30
0
70
128
71
-114
72
127
73
126
0
VERTEX
8
DOOR
10
0
20
0
30
0
70
128
71
115
72
116
73
-128
0
VERTEX
8
DOOR
10
0
20
0
30
0
70
128
71
-115
72
128
73
127
0
VERTEX
8
DOOR
10
0
20
0
30
0
70
128
71
116
72
105
73
-117
0
VERTEX
8
DOOR
10
0
20
0
30
0
70
128
71
-116
72
117
73
128
0
VERTEX
8
DOOR
10
0
20
0
30
0
70
128
71
117
72
118
73
-130
0
VERTEX
8
DOOR
10
0
20
0
30
0
70
128
71
-117
72
130
73
129
0
VERTEX
8
DOOR
10
0
20
0
30
0
70
128
71
118
72
119
73
-131
0
VERTEX
8
DOOR
10
0
20
0
30
0
70
128
71
-118
72
131
73
130
0
VERTEX
8
DOOR
10
0
20
0
30
0
70
128
71
119
72
120
73
-132
0
VERTEX
8
DOOR
10
0
20
0
30
0
70
128
71
-119
72
132
73
131
0
VERTEX
8
DOOR
10
0
20
0
30
0
70
128
71
120
72
121
73
-133
0
VERTEX
8
DOOR
10
0
20
0
30
0
70
128
71
-120
72
133
73
132
0
VERTEX
8
DOOR
10
0
20
0
30
0
70
128
71
121
72
122
73
-134
0
VERTEX
8
DOOR
10
0
20
0
30
0
70
128
71
-121
72
134
73
133
0
VERTEX
8
DOOR
10
0
20
0
30
0
70
128
71
122
72
123
73
-135
0
VERTEX
8
DOOR
10
0
20
0
30
0
70
128
71
-122
72
135
73
134
0
VERTEX
8
DOOR
10
0
20
0
30
0
70
128
71
123
72
124
73
-136
0
VERTEX
8
DOOR
10
0
20
0
30
0
70
128
71
-123
72
136
73
135
0
VERTEX
8
DOOR
10
0
20
0
30
0
70
128
71
124
72
125
73
-137
0
VERTEX
8
DOOR
10
0
20
0
30
0
70
128
71
-124
72
137
73
136
0
VERTEX
8
DOOR
10
0
20
0
30
0
70
128
71
125
72
126
73
-138
0
VERTEX
8
DOOR
10
0
20
0
30
0
70
128
71
-125
72
138
73
137
0
VERTEX
8
DOOR
10
0
20
0
30
0
70
128
71
126
72
127
73
-139
0
VERTEX
8
DOOR
10
0
20
0
30
0
70
128
71
-126
72
139
73
138
0
VERTEX
8
DOOR
10
0
20
0
30
0
70
128
71
127
72
128
73
-140
0
VERTEX
8
DOOR
10
0
20
0
30
0
70
128
71
-127
72
140
73
139
0
VERTEX
8
DOOR
10
0
20
0
30
0
70
128
71
128
72
117
73
-129
0
VERTEX
8
DOOR
10
0
20
0
30
0
70
128
71
-128
72
129
73
140
0
VERTEX
8
DOOR
10
0
20
0
30
0
70
128
71
129
72
130
73
-142
0
VERTEX
8
DOOR
10
0
20
0
30
0
70
128
71
-129
72
142
73
141
0
VERTEX
8
DOOR
10
0
20
0
30
0
70
128
71
130
72
131
73
-143
0
VERTEX
8
DOOR
10
0
20
0
30
0
70
128
71
-130
72
143
73
142
0
VERTEX
8
DOOR
10
0
20
0
30
0
70
128
71
131
72
132
73
-144
0
VERTEX
8
DOOR
10
0
20
0
30
0
70
128
71
-131
72
144
73
143
0
VERTEX
8
DOOR
10
0
20
0
30
0
70
128
71
132
72
133
73
-145
0
VERTEX
8
DOOR
10
0
20
0
30
0
70
128
71
-132
72
145
73
144
0
VERTEX
8
DOOR
10
0
20
0
30
0
70
128
71
133
72
134
73
-146
0
VERTEX
8
DOOR
10
0
20
0
30
0
70
128
71
-133
72
146
73
145
0
VERTEX
8
DOOR
10
0
20
0
30
0
70
128
71
134
72
135
73
-147
0
VERTEX
8
DOOR
10
0
20
0
30
0
70
128
71
-134
72
147
73
146
0
VERTEX
8
DOOR
10
0
20
0
30
0
70
128
71
135
72
136
73
-148
0
VERTEX
8
DOOR
10
0
20
0
30
0
70
128
71
-135
72
148
73
147
0
VERTEX
8
DOOR
10
0
20
0
30
0
70
128
71
136
72
137
73
-149
0
VERTEX
8
DOOR
10
0
20
0
30
0
70
128
71
-136
72
149
73
148
0
VERTEX
8
DOOR
10
0
20
0
30
0
70
128
71
137
72
138
73
-150
0
VERTEX
8
DOOR
10
0
20
0
30
0
70
128
71
-137
72
150
73
149
0
VERTEX
8
DOOR
10
0
20
0
30
0
70
128
71
138
72
139
73
-151
0
VERTEX
8
DOOR
10
0
20
0
30
0
70
128
71
-138
72
151
73
150
0
VERTEX
8
DOOR
10
0
20
0
30
0
70
128
71
139
72
140
73
-152
0
VERTEX
8
DOOR
10
0
20
0
30
0
70
128
71
-139
72
152
73
151
0
VERTEX
8
DOOR
10
0
20
0
30
0
70
128
71
140
72
129
73
-141
0
VERTEX
8
DOOR
10
0
20
0
30
0
70
128
71
-140
72
141
73
152
0
VERTEX
8
DOOR
10
0
20
0
30
0
70
128
71
141
72
142
73
-154
0
VERTEX
8
DOOR
10
0
20
0
30
0
70
128
71
-141
72
154
73
153
0
VERTEX
8
DOOR
10
0
20
0
30
0
70
128
71
142
72
143
73
-155
0
VERTEX
8
DOOR
10
0
20
0
30
0
70
128
71
-142
72
155
73
154
0
VERTEX
8
DOOR
10
0
20
0
30
0
70
128
71
143
72
144
73
-156
0
VERTEX
8
DOOR
10
0
20
0
30
0
70
128
71
-143
72
156
73
155
0
VERTEX
8
DOOR
10
0
20
0
30
0
70
128
71
144
72
145
73
-157
0
VERTEX
8
DOOR
10
0
20
0
30
0
70
128
71
-144
72
157
73
156
0
VERTEX
8
DOOR
10
0
20
0
30
0
70
128
71
145
72
146
73
-158
0
VERTEX
8
DOOR
10
0
20
0
30
0
70
128
71
-145
72
158
73
157
0
VERTEX
8
DOOR
10
0
20
0
30
0
70
128
71
146
72
147
73
-159
0
VERTEX
8
DOOR
10
0
20
0
30
0
70
128
71
-146
72
159
73
158
0
VERTEX
8
DOOR
10
0
20
0
30
0
70
128
71
147
72
148
73
-160
0
VERTEX
8
DOOR
10
0
20
0
30
0
70
128
71
-147
72
160
73
159
0
VERTEX
8
DOOR
10
0
20
0
30
0
70
128
71
148
72
149
73
-161
0
VERTEX
8
DOOR
10
0
20
0
30
0
70
128
71
-148
72
161
73
160
0
VERTEX
8
DOOR
10
0
20
0
30
0
70
128
71
149
72
150
73
-162
0
VERTEX
8
DOOR
10
0
20
0
30
0
70
128
71
-149
72
162
73
161
0
VERTEX
8
DOOR
10
0
20
0
30
0
70
128
71
150
72
151
73
-163
0
VERTEX
8
DOOR
10
0
20
0
30
0
70
128
71
-150
72
163
73
162
0
VERTEX
8
DOOR
10
0
20
0
30
0
70
128
71
151
72
152
73
-164
0
VERTEX
8
DOOR
10
0
20
0
30
0
70
128
71
-151
72
164
73
163
0
VERTEX
8
DOOR
10
0
20
0
30
0
70
128
71
152
72
141
73
-153
0
VERTEX
8
DOOR
10
0
20
0
30
0
70
128
71
-152
72
153
73
164
0
VERTEX
8
DOOR
10
0
20
0
30
0
70
128
71
153
72
154
73
-166
0
VERTEX
8
DOOR
10
0
20
0
30
0
70
128
71
-153
72
166
73
165
0
VERTEX
8
DOOR
10
0
20
0
30
0
70
128
71
154
72
155
73
-167
0
VERTEX
8
DOOR
10
0
20
0
30
0
70
128
71
-154
72
167
73
166
0
VERTEX
8
DOOR
10
0
20
0
30
0
70
128
71
155
72
156
73
-168
0
VERTEX
8
DOOR
10
0
20
0
30
0
70
128
71
-155
72
168
73
167
0
VERTEX
8
DOOR
10
0
20
0
30
0
70
128
71
156
72
157
73
-169
0
VERTEX
8
DOOR
10
0
20
0
30
0
70
128
71
-156
72
169
73
168
0
VERTEX
8
DOOR
10
0
20
0
30
0
70
128
71
157
72
158
73
-170
0
VERTEX
8
DOOR
10
0
20
0
30
0
70
128
71
-157
72
170
73
169
0
VERTEX
8
DOOR
10
0
20
0
30
0
70
128
71
158
72
159
73
-171
0
VERTEX
8
DOOR
10
0
20
0
30
0
70
128
71
-158
72
171
73
170
0
VERTEX
8
DOOR
10
0
20
0
30
0
70
128
71
159
72
160
73
-172
0
VERTEX
8
DOOR
10
0
20
0
30
0
70
128
71
-159
72
172
73
171
0
VERTEX
8
DOOR
10
0
20
0
30
0
70
128
71
160
72
161
73
-173
0
VERTEX
8
DOOR
10
0
20
0
30
0
70
128
71
-160
72
173
73
172
0
VERTEX
8
DOOR
10
0
20
0
30
0
70
128
71
161
72
162
73
-174
0
VERTEX
8
DOOR
10
0
20
0
30
0
70
128
71
-161
72
174
73
173
0
VERTEX
8
DOOR
10
0
20
0
30
0
70
128
71
162
72
163
73
-175
0
VERTEX
8
DOOR
10
0
20
0
30
0
70
128
71
-162
72
175
73
174
0
VERTEX
8
DOOR
10
0
20
0
30
0
70
128
71
163
72
164
73
-176
0
VERTEX
8
DOOR
10
0
20
0
30
0
70
128
71
-163
72
176
73
175
0
VERTEX
8
DOOR
10
0
20
0
30
0
70
128
71
164
72
153
73
-165
0
VERTEX
8
DOOR
10
0
20
0
30
0
70
128
71
-164
72
165
73
176
0
VERTEX
8
DOOR
10
0
20
0
30
0
70
128
71
177
72
178
73
-190
0
VERTEX
8
DOOR
10
0
20
0
30
0
70
128
71
-177
72
190
73
189
0
VERTEX
8
DOOR
10
0
20
0
30
0
70
128
71
178
72
179
73
-191
0
VERTEX
8
DOOR
10
0
20
0
30
0
70
128
71
-178
72
191
73
190
0
VERTEX
8
DOOR
10
0
20
0
30
0
70
128
71
179
72
180
73
-192
0
VERTEX
8
DOOR
10
0
20
0
30
0
70
128
71
-179
72
192
73
191
0
VERTEX
8
DOOR
10
0
20
0
30
0
70
128
71
180
72
181
73
-193
0
VERTEX
8
DOOR
10
0
20
0
30
0
70
128
71
-180
72
193
73
192
0
VERTEX
8
DOOR
10
0
20
0
30
0
70
128
71
181
72
182
73
-194
0
VERTEX
8
DOOR
10
0
20
0
30
0
70
128
71
-181
72
194
73
193
0
VERTEX
8
DOOR
10
0
20
0
30
0
70
128
71
182
72
183
73
-195
0
VERTEX
8
DOOR
10
0
20
0
30
0
70
128
71
-182
72
195
73
194
0
VERTEX
8
DOOR
10
0
20
0
30
0
70
128
71
183
72
184
73
-196
0
VERTEX
8
DOOR
10
0
20
0
30
0
70
128
71
-183
72
196
73
195
0
VERTEX
8
DOOR
10
0
20
0
30
0
70
128
71
184
72
185
73
-197
0
VERTEX
8
DOOR
10
0
20
0
30
0
70
128
71
-184
72
197
73
196
0
VERTEX
8
DOOR
10
0
20
0
30
0
70
128
71
185
72
186
73
-198
0
VERTEX
8
DOOR
10
0
20
0
30
0
70
128
71
-185
72
198
73
197
0
VERTEX
8
DOOR
10
0
20
0
30
0
70
128
71
186
72
187
73
-199
0
VERTEX
8
DOOR
10
0
20
0
30
0
70
128
71
-186
72
199
73
198
0
VERTEX
8
DOOR
10
0
20
0
30
0
70
128
71
187
72
188
73
-200
0
VERTEX
8
DOOR
10
0
20
0
30
0
70
128
71
-187
72
200
73
199
0
VERTEX
8
DOOR
10
0
20
0
30
0
70
128
71
188
72
177
73
-189
0
VERTEX
8
DOOR
10
0
20
0
30
0
70
128
71
-188
72
189
73
200
0
VERTEX
8
DOOR
10
0
20
0
30
0
70
128
71
189
72
190
73
-202
0
VERTEX
8
DOOR
10
0
20
0
30
0
70
128
71
-189
72
202
73
201
0
VERTEX
8
DOOR
10
0
20
0
30
0
70
128
71
190
72
191
73
-203
0
VERTEX
8
DOOR
10
0
20
0
30
0
70
128
71
-190
72
203
73
202
0
VERTEX
8
DOOR
10
0
20
0
30
0
70
128
71
191
72
192
73
-204
0
VERTEX
8
DOOR
10
0
20
0
30
0
70
128
71
-191
72
204
73
203
0
VERTEX
8
DOOR
10
0
20
0
30
0
70
128
71
192
72
193
73
-205
0
VERTEX
8
DOOR
10
0
20
0
30
0
70
128
71
-192
72
205
73
204
0
VERTEX
8
DOOR
10
0
20
0
30
0
70
128
71
193
72
194
73
-206
0
VERTEX
8
DOOR
10
0
20
0
30
0
70
128
71
-193
72
206
73
205
0
VERTEX
8
DOOR
10
0
20
0
30
0
70
128
71
194
72
195
73
-207
0
VERTEX
8
DOOR
10
0
20
0
30
0
70
128
71
-194
72
207
73
206
0
VERTEX
8
DOOR
10
0
20
0
30
0
70
128
71
195
72
196
73
-208
0
VERTEX
8
DOOR
10
0
20
0
30
0
70
128
71
-195
72
208
73
207
0
VERTEX
8
DOOR
10
0
20
0
30
0
70
128
71
196
72
197
73
-209
0
VERTEX
8
DOOR
10
0
20
0
30
0
70
128
71
-196
72
209
73
208
0
VERTEX
8
DOOR
10
0
20
0
30
0
70
128
71
197
72
198
73
-210
0
VERTEX
8
DOOR
10
0
20
0
30
0
70
128
71
-197
72
210
73
209
0
VERTEX
8
DOOR
10
0
20
0
30
0
70
128
71
198
72
199
73
-211
0
VERTEX
8
DOOR
10
0
20
0
30
0
70
128
71
-198
72
211
73
210
0
VERTEX
8
DOOR
10
0
20
0
30
0
70
128
71
199
72
200
73
-212
0
VERTEX
8
DOOR
10
0
20
0
30
0
70
128
71
-199
72
212
73
211
0
VERTEX
8
DOOR
10
0
20
0
30
0
70
128
71
200
72
189
73
-201
0
VERTEX
8
DOOR
10
0
20
0
30
0
70
128
71
-200
72
201
73
212
0
VERTEX
8
DOOR
10
0
20
0
30
0
70
128
71
201
72
-202
73
-213
0
VERTEX
8
DOOR
10
0
20
0
30
0
70
128
71
202
72
-203
73
-213
0
VERTEX
8
DOOR
10
0
20
0
30
0
70
128
71
203
72
-204
73
-213
0
VERTEX
8
DOOR
10
0
20
0
30
0
70
128
71
204
72
-205
73
-213
0
VERTEX
8
DOOR
10
0
20
0
30
0
70
128
71
205
72
-206
73
-213
0
VERTEX
8
DOOR
10
0
20
0
30
0
70
128
71
206
72
-207
73
-213
0
VERTEX
8
DOOR
10
0
20
0
30
0
70
128
71
207
72
-208
73
-213
0
VERTEX
8
DOOR
10
0
20
0
30
0
70
128
71
208
72
-209
73
-213
0
VERTEX
8
DOOR
10
0
20
0
30
0
70
128
71
209
72
-210
73
-213
0
VERTEX
8
DOOR
10
0
20
0
30
0
70
128
71
210
72
-211
73
-213
0
VERTEX
8
DOOR
10
0
20
0
30
0
70
128
71
211
72
-212
73
-213
0
VERTEX
8
DOOR
10
0
20
0
30
0
70
128
71
212
72
-201
73
-213
0
VERTEX
8
DOOR
10
0
20
0
30
0
70
128
71
214
72
215
73
-227
0
VERTEX
8
DOOR
10
0
20
0
30
0
70
128
71
-214
72
227
73
226
0
VERTEX
8
DOOR
10
0
20
0
30
0
70
128
71
215
72
216
73
-228
0
VERTEX
8
DOOR
10
0
20
0
30
0
70
128
71
-215
72
228
73
227
0
VERTEX
8
DOOR
10
0
20
0
30
0
70
128
71
216
72
217
73
-229
0
VERTEX
8
DOOR
10
0
20
0
30
0
70
128
71
-216
72
229
73
228
0
VERTEX
8
DOOR
10
0
20
0
30
0
70
128
71
217
72
218
73
-230
0
VERTEX
8
DOOR
10
0
20
0
30
0
70
128
71
-217
72
230
73
229
0
VERTEX
8
DOOR
10
0
20
0
30
0
70
128
71
218
72
219
73
-231
0
VERTEX
8
DOOR
10
0
20
0
30
0
70
128
71
-218
72
231
73
230
0
VERTEX
8
DOOR
10
0
20
0
30
0
70
128
71
219
72
220
73
-232
0
VERTEX
8
DOOR
10
0
20
0
30
0
70
128
71
-219
72
232
73
231
0
VERTEX
8
DOOR
10
0
20
0
30
0
70
128
71
220
72
221
73
-233
0
VERTEX
8
DOOR
10
0
20
0
30
0
70
128
71
-220
72
233
73
232
0
VERTEX
8
DOOR
10
0
20
0
30
0
70
128
71
221
72
222
73
-234
0
VERTEX
8
DOOR
10
0
20
0
30
0
70
128
71
-221
72
234
73
233
0
VERTEX
8
DOOR
10
0
20
0
30
0
70
128
71
222
72
223
73
-235
0
VERTEX
8
DOOR
10
0
20
0
30
0
70
128
71
-222
72
235
73
234
0
VERTEX
8
DOOR
10
0
20
0
30
0
70
128
71
223
72
224
73
-236
0
VERTEX
8
DOOR
10
0
20
0
30
0
70
128
71
-223
72
236
73
235
0
VERTEX
8
DOOR
10
0
20
0
30
0
70
128
71
224
72
225
73
-237
0
VERTEX
8
DOOR
10
0
20
0
30
0
70
128
71
-224
72
237
73
236
0
VERTEX
8
DOOR
10
0
20
0
30
0
70
128
71
225
72
214
73
-226
0
VERTEX
8
DOOR
10
0
20
0
30
0
70
128
71
-225
72
226
73
237
0
VERTEX
8
DOOR
10
0
20
0
30
0
70
128
71
226
72
-227
73
-238
0
VERTEX
8
DOOR
10
0
20
0
30
0
70
128
71
227
72
-228
73
-238
0
VERTEX
8
DOOR
10
0
20
0
30
0
70
128
71
228
72
-229
73
-238
0
VERTEX
8
DOOR
10
0
20
0
30
0
70
128
71
229
72
-230
73
-238
0
VERTEX
8
DOOR
10
0
20
0
30
0
70
128
71
230
72
-231
73
-238
0
VERTEX
8
DOOR
10
0
20
0
30
0
70
128
71
231
72
-232
73
-238
0
VERTEX
8
DOOR
10
0
20
0
30
0
70
128
71
232
72
-233
73
-238
0
VERTEX
8
DOOR
10
0
20
0
30
0
70
128
71
233
72
-234
73
-238
0
VERTEX
8
DOOR
10
0
20
0
30
0
70
128
71
234
72
-235
73
-238
0
VERTEX
8
DOOR
10
0
20
0
30
0
70
128
71
235
72
-236
73
-238
0
VERTEX
8
DOOR
10
0
20
0
30
0
70
128
71
236
72
-237
73
-238
0
VERTEX
8
DOOR
10
0
20
0
30
0
70
128
71
237
72
-226
73
-238
0
VERTEX
8
DOOR
10
0
20
0
30
0
70
128
71
240
72
239
73
-262
0
VERTEX
8
DOOR
10
0
20
0
30
0
70
128
71
-240
72
262
73
-261
0
VERTEX
8
DOOR
10
0
20
0
30
0
70
128
71
-240
72
261
73
-260
0
VERTEX
8
DOOR
10
0
20
0
30
0
70
128
71
241
72
-240
73
-260
0
VERTEX
8
DOOR
10
0
20
0
30
0
70
128
71
242
72
-241
73
-260
0
VERTEX
8
DOOR
10
0
20
0
30
0
70
128
71
-242
72
260
73
-259
0
VERTEX
8
DOOR
10
0
20
0
30
0
70
128
71
243
72
-242
73
-259
0
VERTEX
8
DOOR
10
0
20
0
30
0
70
128
71
244
72
-243
73
-259
0
VERTEX
8
DOOR
10
0
20
0
30
0
70
128
71
-244
72
259
73
-258
0
VERTEX
8
DOOR
10
0
20
0
30
0
70
128
71
-244
72
258
73
-257
0
VERTEX
8
DOOR
10
0
20
0
30
0
70
128
71
245
72
-244
73
-257
0
VERTEX
8
DOOR
10
0
20
0
30
0
70
128
71
246
72
-245
73
-257
0
VERTEX
8
DOOR
10
0
20
0
30
0
70
128
71
-246
72
257
73
-256
0
VERTEX
8
DOOR
10
0
20
0
30
0
70
128
71
247
72
-246
73
-256
0
VERTEX
8
DOOR
10
0
20
0
30
0
70
128
71
248
72
-247
73
-256
0
VERTEX
8
DOOR
10
0
20
0
30
0
70
128
71
249
72
-248
73
-256
0
VERTEX
8
DOOR
10
0
20
0
30
0
70
128
71
250
72
-249
73
-256
0
VERTEX
8
DOOR
10
0
20
0
30
0
70
128
71
251
72
-250
73
-256
0
VERTEX
8
DOOR
10
0
20
0
30
0
70
128
71
252
72
-251
73
-256
0
VERTEX
8
DOOR
10
0
20
0
30
0
70
128
71
253
72
-252
73
-256
0
VERTEX
8
DOOR
10
0
20
0
30
0
70
128
71
254
72
-253
73
-256
0
VERTEX
8
DOOR
10
0
20
0
30
0
70
128
71
255
72
-254
73
256
0
VERTEX
8
DOOR
10
0
20
0
30
0
70
128
71
-270
72
268
73
269
0
VERTEX
8
DOOR
10
0
20
0
30
0
70
128
71
-270
72
267
73
-268
0
VERTEX
8
DOOR
10
0
20
0
30
0
70
128
71
-270
72
266
73
-267
0
VERTEX
8
DOOR
10
0
20
0
30
0
70
128
71
-270
72
265
73
-266
0
VERTEX
8
DOOR
10
0
20
0
30
0
70
128
71
-270
72
264
73
-265
0
VERTEX
8
DOOR
10
0
20
0
30
0
70
128
71
-270
72
263
73
-264
0
VERTEX
8
DOOR
10
0
20
0
30
0
70
128
71
-270
72
274
73
-263
0
VERTEX
8
DOOR
10
0
20
0
30
0
70
128
71
-270
72
273
73
-274
0
VERTEX
8
DOOR
10
0
20
0
30
0
70
128
71
-270
72
272
73
-273
0
VERTEX
8
DOOR
10
0
20
0
30
0
70
128
71
270
72
271
73
-272
0
VERTEX
8
DOOR
10
0
20
0
30
0
70
128
71
-263
72
276
73
264
0
VERTEX
8
DOOR
10
0
20
0
30
0
70
128
71
263
72
275
73
-276
0
VERTEX
8
DOOR
10
0
20
0
30
0
70
128
71
-264
72
277
73
265
0
VERTEX
8
DOOR
10
0
20
0
30
0
70
128
71
264
72
276
73
-277
0
VERTEX
8
DOOR
10
0
20
0
30
0
70
128
71
-265
72
278
73
266
0
VERTEX
8
DOOR
10
0
20
0
30
0
70
128
71
265
72
277
73
-278
0
VERTEX
8
DOOR
10
0
20
0
30
0
70
128
71
-266
72
279
73
267
0
VERTEX
8
DOOR
10
0
20
0
30
0
70
128
71
266
72
278
73
-279
0
VERTEX
8
DOOR
10
0
20
0
30
0
70
128
71
-267
72
280
73
268
0
VERTEX
8
DOOR
10
0
20
0
30
0
70
128
71
267
72
279
73
-280
0
VERTEX
8
DOOR
10
0
20
0
30
0
70
128
71
-268
72
281
73
269
0
VERTEX
8
DOOR
10
0
20
0
30
0
70
128
71
268
72
280
73
-281
0
VERTEX
8
DOOR
10
0
20
0
30
0
70
128
71
-269
72
282
73
270
0
VERTEX
8
DOOR
10
0
20
0
30
0
70
128
71
269
72
281
73
-282
0
VERTEX
8
DOOR
10
0
20
0
30
0
70
128
71
-270
72
283
73
271
0
VERTEX
8
DOOR
10
0
20
0
30
0
70
128
71
270
72
282
73
-283
0
VERTEX
8
DOOR
10
0
20
0
30
0
70
128
71
-271
72
284
73
272
0
VERTEX
8
DOOR
10
0
20
0
30
0
70
128
71
271
72
283
73
-284
0
VERTEX
8
DOOR
10
0
20
0
30
0
70
128
71
-272
72
285
73
273
0
VERTEX
8
DOOR
10
0
20
0
30
0
70
128
71
272
72
284
73
-285
0
VERTEX
8
DOOR
10
0
20
0
30
0
70
128
71
-273
72
286
73
274
0
VERTEX
8
DOOR
10
0
20
0
30
0
70
128
71
273
72
285
73
-286
0
VERTEX
8
DOOR
10
0
20
0
30
0
70
128
71
-274
72
275
73
263
0
VERTEX
8
DOOR
10
0
20
0
30
0
70
128
71
274
72
286
73
-275
0
VERTEX
8
DOOR
10
0
20
0
30
0
70
128
71
-275
72
288
73
276
0
VERTEX
8
DOOR
10
0
20
0
30
0
70
128
71
275
72
287
73
-288
0
VERTEX
8
DOOR
10
0
20
0
30
0
70
128
71
-276
72
289
73
277
0
VERTEX
8
DOOR
10
0
20
0
30
0
70
128
71
276
72
288
73
-289
0
VERTEX
8
DOOR
10
0
20
0
30
0
70
128
71
-277
72
290
73
278
0
VERTEX
8
DOOR
10
0
20
0
30
0
70
128
71
277
72
289
73
-290
0
VERTEX
8
DOOR
10
0
20
0
30
0
70
128
71
-278
72
291
73
279
0
VERTEX
8
DOOR
10
0
20
0
30
0
70
128
71
278
72
290
73
-291
0
VERTEX
8
DOOR
10
0
20
0
30
0
70
128
71
-279
72
292
73
280
0
VERTEX
8
DOOR
10
0
20
0
30
0
70
128
71
279
72
291
73
-292
0
VERTEX
8
DOOR
10
0
20
0
30
0
70
128
71
-280
72
293
73
281
0
VERTEX
8
DOOR
10
0
20
0
30
0
70
128
71
280
72
292
73
-293
0
VERTEX
8
DOOR
10
0
20
0
30
0
70
128
71
-281
72
294
73
282
0
VERTEX
8
DOOR
10
0
20
0
30
0
70
128
71
281
72
293
73
-294
0
VERTEX
8
DOOR
10
0
20
0
30
0
70
128
71
-282
72
295
73
283
0
VERTEX
8
DOOR
10
0
20
0
30
0
70
128
71
282
72
294
73
-295
0
VERTEX
8
DOOR
10
0
20
0
30
0
70
128
71
-283
72
296
73
284
0
VERTEX
8
DOOR
10
0
20
0
30
0
70
128
71
283
72
295
73
-296
0
VERTEX
8
DOOR
10
0
20
0
30
0
70
128
71
-284
72
297
73
285
0
VERTEX
8
DOOR
10
0
20
0
30
0
70
128
71
284
72
296
73
-297
0
VERTEX
8
DOOR
10
0
20
0
30
0
70
128
71
-285
72
298
73
286
0
VERTEX
8
DOOR
10
0
20
0
30
0
70
128
71
285
72
297
73
-298
0
VERTEX
8
DOOR
10
0
20
0
30
0
70
128
71
-286
72
287
73
275
0
VERTEX
8
DOOR
10
0
20
0
30
0
70
128
71
286
72
298
73
-287
0
VERTEX
8
DOOR
10
0
20
0
30
0
70
128
71
-287
72
300
73
288
0
VERTEX
8
DOOR
10
0
20
0
30
0
70
128
71
287
72
299
73
-300
0
VERTEX
8
DOOR
10
0
20
0
30
0
70
128
71
-288
72
301
73
289
0
VERTEX
8
DOOR
10
0
20
0
30
0
70
128
71
288
72
300
73
-301
0
VERTEX
8
DOOR
10
0
20
0
30
0
70
128
71
-289
72
302
73
290
0
VERTEX
8
DOOR
10
0
20
0
30
0
70
128
71
289
72
301
73
-302
0
VERTEX
8
DOOR
10
0
20
0
30
0
70
128
71
-290
72
303
73
291
0
VERTEX
8
DOOR
10
0
20
0
30
0
70
128
71
290
72
302
73
-303
0
VERTEX
8
DOOR
10
0
20
0
30
0
70
128
71
-291
72
304
73
292
0
VERTEX
8
DOOR
10
0
20
0
30
0
70
128
71
291
72
303
73
-304
0
VERTEX
8
DOOR
10
0
20
0
30
0
70
128
71
-292
72
305
73
293
0
VERTEX
8
DOOR
10
0
20
0
30
0
70
128
71
292
72
304
73
-305
0
VERTEX
8
DOOR
10
0
20
0
30
0
70
128
71
-293
72
306
73
294
0
VERTEX
8
DOOR
10
0
20
0
30
0
70
128
71
293
72
305
73
-306
0
VERTEX
8
DOOR
10
0
20
0
30
0
70
128
71
-294
72
307
73
295
0
VERTEX
8
DOOR
10
0
20
0
30
0
70
128
71
294
72
306
73
-307
0
VERTEX
8
DOOR
10
0
20
0
30
0
70
128
71
-295
72
308
73
296
0
VERTEX
8
DOOR
10
0
20
0
30
0
70
128
71
295
72
307
73
-308
0
VERTEX
8
DOOR
10
0
20
0
30
0
70
128
71
-296
72
309
73
297
0
VERTEX
8
DOOR
10
0
20
0
30
0
70
128
71
296
72
308
73
-309
0
VERTEX
8
DOOR
10
0
20
0
30
0
70
128
71
-297
72
310
73
298
0
VERTEX
8
DOOR
10
0
20
0
30
0
70
128
71
297
72
309
73
-310
0
VERTEX
8
DOOR
10
0
20
0
30
0
70
128
71
-298
72
299
73
287
0
VERTEX
8
DOOR
10
0
20
0
30
0
70
128
71
298
72
310
73
-299
0
VERTEX
8
DOOR
10
0
20
0
30
0
70
128
71
-299
72
312
73
300
0
VERTEX
8
DOOR
10
0
20
0
30
0
70
128
71
299
72
311
73
-312
0
VERTEX
8
DOOR
10
0
20
0
30
0
70
128
71
-300
72
313
73
301
0
VERTEX
8
DOOR
10
0
20
0
30
0
70
128
71
300
72
312
73
-313
0
VERTEX
8
DOOR
10
0
20
0
30
0
70
128
71
-301
72
314
73
302
0
VERTEX
8
DOOR
10
0
20
0
30
0
70
128
71
301
72
313
73
-314
0
VERTEX
8
DOOR
10
0
20
0
30
0
70
128
71
-302
72
315
73
303
0
VERTEX
8
DOOR
10
0
20
0
30
0
70
128
71
302
72
314
73
-315
0
VERTEX
8
DOOR
10
0
20
0
30
0
70
128
71
-303
72
316
73
304
0
VERTEX
8
DOOR
10
0
20
0
30
0
70
128
71
303
72
315
73
-316
0
VERTEX
8
DOOR
10
0
20
0
30
0
70
128
71
-304
72
317
73
305
0
VERTEX
8
DOOR
10
0
20
0
30
0
70
128
71
304
72
316
73
-317
0
VERTEX
8
DOOR
10
0
20
0
30
0
70
128
71
-305
72
318
73
306
0
VERTEX
8
DOOR
10
0
20
0
30
0
70
128
71
305
72
317
73
-318
0
VERTEX
8
DOOR
10
0
20
0
30
0
70
128
71
-306
72
319
73
307
0
VERTEX
8
DOOR
10
0
20
0
30
0
70
128
71
306
72
318
73
-319
0
VERTEX
8
DOOR
10
0
20
0
30
0
70
128
71
-307
72
320
73
308
0
VERTEX
8
DOOR
10
0
20
0
30
0
70
128
71
307
72
319
73
-320
0
VERTEX
8
DOOR
10
0
20
0
30
0
70
128
71
-308
72
321
73
309
0
VERTEX
8
DOOR
10
0
20
0
30
0
70
128
71
308
72
320
73
-321
0
VERTEX
8
DOOR
10
0
20
0
30
0
70
128
71
-309
72
322
73
310
0
VERTEX
8
DOOR
10
0
20
0
30
0
70
128
71
309
72
321
73
-322
0
VERTEX
8
DOOR
10
0
20
0
30
0
70
128
71
-310
72
311
73
299
0
VERTEX
8
DOOR
10
0
20
0
30
0
70
128
71
310
72
322
73
-311
0
VERTEX
8
DOOR
10
0
20
0
30
0
70
128
71
-311
72
324
73
312
0
VERTEX
8
DOOR
10
0
20
0
30
0
70
128
71
311
72
323
73
-324
0
VERTEX
8
DOOR
10
0
20
0
30
0
70
128
71
-312
72
325
73
313
0
VERTEX
8
DOOR
10
0
20
0
30
0
70
128
71
312
72
324
73
-325
0
VERTEX
8
DOOR
10
0
20
0
30
0
70
128
71
-313
72
326
73
314
0
VERTEX
8
DOOR
10
0
20
0
30
0
70
128
71
313
72
325
73
-326
0
VERTEX
8
DOOR
10
0
20
0
30
0
70
128
71
-314
72
327
73
315
0
VERTEX
8
DOOR
10
0
20
0
30
0
70
128
71
314
72
326
73
-327
0
VERTEX
8
DOOR
10
0
20
0
30
0
70
128
71
-315
72
328
73
316
0
VERTEX
8
DOOR
10
0
20
0
30
0
70
128
71
315
72
327
73
-328
0
VERTEX
8
DOOR
10
0
20
0
30
0
70
128
71
-316
72
329
73
317
0
VERTEX
8
DOOR
10
0
20
0
30
0
70
128
71
316
72
328
73
-329
0
VERTEX
8
DOOR
10
0
20
0
30
0
70
128
71
-317
72
330
73
318
0
VERTEX
8
DOOR
10
0
20
0
30
0
70
128
71
317
72
329
73
-330
0
VERTEX
8
DOOR
10
0
20
0
30
0
70
128
71
-318
72
331
73
319
0
VERTEX
8
DOOR
10
0
20
0
30
0
70
128
71
318
72
330
73
-331
0
VERTEX
8
DOOR
10
0
20
0
30
0
70
128
71
-319
72
332
73
320
0
VERTEX
8
DOOR
10
0
20
0
30
0
70
128
71
319
72
331
73
-332
0
VERTEX
8
DOOR
10
0
20
0
30
0
70
128
71
-320
72
333
73
321
0
VERTEX
8
DOOR
10
0
20
0
30
0
70
128
71
320
72
332
73
-333
0
VERTEX
8
DOOR
10
0
20
0
30
0
70
128
71
-321
72
334
73
322
0
VERTEX
8
DOOR
10
0
20
0
30
0
70
128
71
321
72
333
73
-334
0
VERTEX
8
DOOR
10
0
20
0
30
0
70
128
71
-322
72
323
73
311
0
VERTEX
8
DOOR
10
0
20
0
30
0
70
128
71
322
72
334
73
-323
0
VERTEX
8
DOOR
10
0
20
0
30
0
70
128
71
-323
72
336
73
324
0
VERTEX
8
DOOR
10
0
20
0
30
0
70
128
71
323
72
335
73
-336
0
VERTEX
8
DOOR
10
0
20
0
30
0
70
128
71
-324
72
337
73
325
0
VERTEX
8
DOOR
10
0
20
0
30
0
70
128
71
324
72
336
73
-337
0
VERTEX
8
DOOR
10
0
20
0
30
0
70
128
71
-325
72
338
73
326
0
VERTEX
8
DOOR
10
0
20
0
30
0
70
128
71
325
72
337
73
-338
0
VERTEX
8
DOOR
10
0
20
0
30
0
70
128
71
-326
72
339
73
327
0
VERTEX
8
DOOR
10
0
20
0
30
0
70
128
71
326
72
338
73
-339
0
VERTEX
8
DOOR
10
0
20
0
30
0
70
128
71
-327
72
340
73
328
0
VERTEX
8
DOOR
10
0
20
0
30
0
70
128
71
327
72
339
73
-340
0
VERTEX
8
DOOR
10
0
20
0
30
0
70
128
71
-328
72
341
73
329
0
VERTEX
8
DOOR
10
0
20
0
30
0
70
128
71
328
72
340
73
-341
0
VERTEX
8
DOOR
10
0
20
0
30
0
70
128
71
-329
72
342
73
330
0
VERTEX
8
DOOR
10
0
20
0
30
0
70
128
71
329
72
341
73
-342
0
VERTEX
8
DOOR
10
0
20
0
30
0
70
128
71
-330
72
343
73
331
0
VERTEX
8
DOOR
10
0
20
0
30
0
70
128
71
330
72
342
73
-343
0
VERTEX
8
DOOR
10
0
20
0
30
0
70
128
71
-331
72
344
73
332
0
VERTEX
8
DOOR
10
0
20
0
30
0
70
128
71
331
72
343
73
-344
0
VERTEX
8
DOOR
10
0
20
0
30
0
70
128
71
-332
72
345
73
333
0
VERTEX
8
DOOR
10
0
20
0
30
0
70
128
71
332
72
344
73
-345
0
VERTEX
8
DOOR
10
0
20
0
30
0
70
128
71
-333
72
346
73
334
0
VERTEX
8
DOOR
10
0
20
0
30
0
70
128
71
333
72
345
73
-346
0
VERTEX
8
DOOR
10
0
20
0
30
0
70
128
71
-334
72
335
73
323
0
VERTEX
8
DOOR
10
0
20
0
30
0
70
128
71
334
72
346
73
-335
0
VERTEX
8
DOOR
10
0
20
0
30
0
70
128
71
-335
72
348
73
336
0
VERTEX
8
DOOR
10
0
20
0
30
0
70
128
71
335
72
347
73
-348
0
VERTEX
8
DOOR
10
0
20
0
30
0
70
128
71
-336
72
349
73
337
0
VERTEX
8
DOOR
10
0
20
0
30
0
70
128
71
336
72
348
73
-349
0
VERTEX
8
DOOR
10
0
20
0
30
0
70
128
71
-337
72
350
73
338
0
VERTEX
8
DOOR
10
0
20
0
30
0
70
128
71
337
72
349
73
-350
0
VERTEX
8
DOOR
10
0
20
0
30
0
70
128
71
-338
72
351
73
339
0
VERTEX
8
DOOR
10
0
20
0
30
0
70
128
71
338
72
350
73
-351
0
VERTEX
8
DOOR
10
0
20
0
30
0
70
128
71
-339
72
352
73
340
0
VERTEX
8
DOOR
10
0
20
0
30
0
70
128
71
339
72
351
73
-352
0
VERTEX
8
DOOR
10
0
20
0
30
0
70
128
71
-340
72
353
73
341
0
VERTEX
8
DOOR
10
0
20
0
30
0
70
128
71
340
72
352
73
-353
0
VERTEX
8
DOOR
10
0
20
0
30
0
70
128
71
-341
72
354
73
342
0
VERTEX
8
DOOR
10
0
20
0
30
0
70
128
71
341
72
353
73
-354
0
VERTEX
8
DOOR
10
0
20
0
30
0
70
128
71
-342
72
355
73
343
0
VERTEX
8
DOOR
10
0
20
0
30
0
70
128
71
342
72
354
73
-355
0
VERTEX
8
DOOR
10
0
20
0
30
0
70
128
71
-343
72
356
73
344
0
VERTEX
8
DOOR
10
0
20
0
30
0
70
128
71
343
72
355
73
-356
0
VERTEX
8
DOOR
10
0
20
0
30
0
70
128
71
-344
72
357
73
345
0
VERTEX
8
DOOR
10
0
20
0
30
0
70
128
71
344
72
356
73
-357
0
VERTEX
8
DOOR
10
0
20
0
30
0
70
128
71
-345
72
358
73
346
0
VERTEX
8
DOOR
10
0
20
0
30
0
70
128
71
345
72
357
73
-358
0
VERTEX
8
DOOR
10
0
20
0
30
0
70
128
71
-346
72
347
73
335
0
VERTEX
8
DOOR
10
0
20
0
30
0
70
128
71
346
72
358
73
-347
0
VERTEX
8
DOOR
10
0
20
0
30
0
70
128
71
-347
72
360
73
348
0
VERTEX
8
DOOR
10
0
20
0
30
0
70
128
71
347
72
359
73
-360
0
VERTEX
8
DOOR
10
0
20
0
30
0
70
128
71
-348
72
361
73
349
0
VERTEX
8
DOOR
10
0
20
0
30
0
70
128
71
348
72
360
73
-361
0
VERTEX
8
DOOR
10
0
20
0
30
0
70
128
71
-349
72
362
73
350
0
VERTEX
8
DOOR
10
0
20
0
30
0
70
128
71
349
72
361
73
-362
0
VERTEX
8
DOOR
10
0
20
0
30
0
70
128
71
-350
72
363
73
351
0
VERTEX
8
DOOR
10
0
20
0
30
0
70
128
71
350
72
362
73
-363
0
VERTEX
8
DOOR
10
0
20
0
30
0
70
128
71
-351
72
364
73
352
0
VERTEX
8
DOOR
10
0
20
0
30
0
70
128
71
351
72
363
73
-364
0
VERTEX
8
DOOR
10
0
20
0
30
0
70
128
71
-352
72
365
73
353
0
VERTEX
8
DOOR
10
0
20
0
30
0
70
128
71
352
72
364
73
-365
0
VERTEX
8
DOOR
10
0
20
0
30
0
70
128
71
-353
72
366
73
354
0
VERTEX
8
DOOR
10
0
20
0
30
0
70
128
71
353
72
365
73
-366
0
VERTEX
8
DOOR
10
0
20
0
30
0
70
128
71
-354
72
367
73
355
0
VERTEX
8
DOOR
10
0
20
0
30
0
70
128
71
354
72
366
73
-367
0
VERTEX
8
DOOR
10
0
20
0
30
0
70
128
71
-355
72
368
73
356
0
VERTEX
8
DOOR
10
0
20
0
30
0
70
128
71
355
72
367
73
-368
0
VERTEX
8
DOOR
10
0
20
0
30
0
70
128
71
-356
72
369
73
357
0
VERTEX
8
DOOR
10
0
20
0
30
0
70
128
71
356
72
368
73
-369
0
VERTEX
8
DOOR
10
0
20
0
30
0
70
128
71
-357
72
370
73
358
0
VERTEX
8
DOOR
10
0
20
0
30
0
70
128
71
357
72
369
73
-370
0
VERTEX
8
DOOR
10
0
20
0
30
0
70
128
71
-358
72
359
73
347
0
VERTEX
8
DOOR
10
0
20
0
30
0
70
128
71
358
72
370
73
-359
0
VERTEX
8
DOOR
10
0
20
0
30
0
70
128
71
-359
72
372
73
360
0
VERTEX
8
DOOR
10
0
20
0
30
0
70
128
71
359
72
371
73
-372
0
VERTEX
8
DOOR
10
0
20
0
30
0
70
128
71
-360
72
373
73
361
0
VERTEX
8
DOOR
10
0
20
0
30
0
70
128
71
360
72
372
73
-373
0
VERTEX
8
DOOR
10
0
20
0
30
0
70
128
71
-361
72
374
73
362
0
VERTEX
8
DOOR
10
0
20
0
30
0
70
128
71
361
72
373
73
-374
0
VERTEX
8
DOOR
10
0
20
0
30
0
70
128
71
-362
72
375
73
363
0
VERTEX
8
DOOR
10
0
20
0
30
0
70
128
71
362
72
374
73
-375
0
VERTEX
8
DOOR
10
0
20
0
30
0
70
128
71
-363
72
376
73
364
0
VERTEX
8
DOOR
10
0
20
0
30
0
70
128
71
363
72
375
73
-376
0
VERTEX
8
DOOR
10
0
20
0
30
0
70
128
71
-364
72
377
73
365
0
VERTEX
8
DOOR
10
0
20
0
30
0
70
128
71
364
72
376
73
-377
0
VERTEX
8
DOOR
10
0
20
0
30
0
70
128
71
-365
72
378
73
366
0
VERTEX
8
DOOR
10
0
20
0
30
0
70
128
71
365
72
377
73
-378
0
VERTEX
8
DOOR
10
0
20
0
30
0
70
128
71
-366
72
379
73
367
0
VERTEX
8
DOOR
10
0
20
0
30
0
70
128
71
366
72
378
73
-379
0
VERTEX
8
DOOR
10
0
20
0
30
0
70
128
71
-367
72
380
73
368
0
VERTEX
8
DOOR
10
0
20
0
30
0
70
128
71
367
72
379
73
-380
0
VERTEX
8
DOOR
10
0
20
0
30
0
70
128
71
-368
72
381
73
369
0
VERTEX
8
DOOR
10
0
20
0
30
0
70
128
71
368
72
380
73
-381
0
VERTEX
8
DOOR
10
0
20
0
30
0
70
128
71
-369
72
382
73
370
0
VERTEX
8
DOOR
10
0
20
0
30
0
70
128
71
369
72
381
73
-382
0
VERTEX
8
DOOR
10
0
20
0
30
0
70
128
71
-370
72
371
73
359
0
VERTEX
8
DOOR
10
0
20
0
30
0
70
128
71
370
72
382
73
-371
0
VERTEX
8
DOOR
10
0
20
0
30
0
70
128
71
-371
72
384
73
372
0
VERTEX
8
DOOR
10
0
20
0
30
0
70
128
71
371
72
383
73
-384
0
VERTEX
8
DOOR
10
0
20
0
30
0
70
128
71
-372
72
385
73
373
0
VERTEX
8
DOOR
10
0
20
0
30
0
70
128
71
372
72
384
73
-385
0
VERTEX
8
DOOR
10
0
20
0
30
0
70
128
71
-373
72
386
73
374
0
VERTEX
8
DOOR
10
0
20
0
30
0
70
128
71
373
72
385
73
-386
0
VERTEX
8
DOOR
10
0
20
0
30
0
70
128
71
-374
72
387
73
375
0
VERTEX
8
DOOR
10
0
20
0
30
0
70
128
71
374
72
386
73
-387
0
VERTEX
8
DOOR
10
0
20
0
30
0
70
128
71
-375
72
388
73
376
0
VERTEX
8
DOOR
10
0
20
0
30
0
70
128
71
375
72
387
73
-388
0
VERTEX
8
DOOR
10
0
20
0
30
0
70
128
71
-376
72
389
73
377
0
VERTEX
8
DOOR
10
0
20
0
30
0
70
128
71
376
72
388
73
-389
0
VERTEX
8
DOOR
10
0
20
0
30
0
70
128
71
-377
72
390
73
378
0
VERTEX
8
DOOR
10
0
20
0
30
0
70
128
71
377
72
389
73
-390
0
VERTEX
8
DOOR
10
0
20
0
30
0
70
128
71
-378
72
391
73
379
0
VERTEX
8
DOOR
10
0
20
0
30
0
70
128
71
378
72
390
73
-391
0
VERTEX
8
DOOR
10
0
20
0
30
0
70
128
71
-379
72
392
73
380
0
VERTEX
8
DOOR
10
0
20
0
30
0
70
128
71
379
72
391
73
-392
0
VERTEX
8
DOOR
10
0
20
0
30
0
70
128
71
-380
72
393
73
381
0
VERTEX
8
DOOR
10
0
20
0
30
0
70
128
71
380
72
392
73
-393
0
VERTEX
8
DOOR
10
0
20
0
30
0
70
128
71
-381
72
394
73
382
0
VERTEX
8
DOOR
10
0
20
0
30
0
70
128
71
381
72
393
73
-394
0
VERTEX
8
DOOR
10
0
20
0
30
0
70
128
71
-382
72
383
73
371
0
VERTEX
8
DOOR
10
0
20
0
30
0
70
128
71
382
72
394
73
-383
0
VERTEX
8
DOOR
10
0
20
0
30
0
70
128
71
-383
72
396
73
384
0
VERTEX
8
DOOR
10
0
20
0
30
0
70
128
71
383
72
395
73
-396
0
VERTEX
8
DOOR
10
0
20
0
30
0
70
128
71
-384
72
397
73
385
0
VERTEX
8
DOOR
10
0
20
0
30
0
70
128
71
384
72
396
73
-397
0
VERTEX
8
DOOR
10
0
20
0
30
0
70
128
71
-385
72
398
73
386
0
VERTEX
8
DOOR
10
0
20
0
30
0
70
128
71
385
72
397
73
-398
0
VERTEX
8
DOOR
10
0
20
0
30
0
70
128
71
-386
72
399
73
387
0
VERTEX
8
DOOR
10
0
20
0
30
0
70
128
71
386
72
398
73
-399
0
VERTEX
8
DOOR
10
0
20
0
30
0
70
128
71
-387
72
400
73
388
0
VERTEX
8
DOOR
10
0
20
0
30
0
70
128
71
387
72
399
73
-400
0
VERTEX
8
DOOR
10
0
20
0
30
0
70
128
71
-388
72
401
73
389
0
VERTEX
8
DOOR
10
0
20
0
30
0
70
128
71
388
72
400
73
-401
0
VERTEX
8
DOOR
10
0
20
0
30
0
70
128
71
-389
72
402
73
390
0
VERTEX
8
DOOR
10
0
20
0
30
0
70
128
71
389
72
401
73
-402
0
VERTEX
8
DOOR
10
0
20
0
30
0
70
128
71
-390
72
403
73
391
0
VERTEX
8
DOOR
10
0
20
0
30
0
70
128
71
390
72
402
73
-403
0
VERTEX
8
DOOR
10
0
20
0
30
0
70
128
71
-391
72
404
73
392
0
VERTEX
8
DOOR
10
0
20
0
30
0
70
128
71
391
72
403
73
-404
0
VERTEX
8
DOOR
10
0
20
0
30
0
70
128
71
-392
72
405
73
393
0
VERTEX
8
DOOR
10
0
20
0
30
0
70
128
71
392
72
404
73
-405
0
VERTEX
8
DOOR
10
0
20
0
30
0
70
128
71
-393
72
406
73
394
0
VERTEX
8
DOOR
10
0
20
0
30
0
70
128
71
393
72
405
73
-406
0
VERTEX
8
DOOR
10
0
20
0
30
0
70
128
71
-394
72
395
73
383
0
VERTEX
8
DOOR
10
0
20
0
30
0
70
128
71
394
72
406
73
-395
0
VERTEX
8
DOOR
10
0
20
0
30
0
70
128
71
-395
72
408
73
396
0
VERTEX
8
DOOR
10
0
20
0
30
0
70
128
71
395
72
407
73
-408
0
VERTEX
8
DOOR
10
0
20
0
30
0
70
128
71
-396
72
409
73
397
0
VERTEX
8
DOOR
10
0
20
0
30
0
70
128
71
396
72
408
73
-409
0
VERTEX
8
DOOR
10
0
20
0
30
0
70
128
71
-397
72
410
73
398
0
VERTEX
8
DOOR
10
0
20
0
30
0
70
128
71
397
72
409
73
-410
0
VERTEX
8
DOOR
10
0
20
0
30
0
70
128
71
-398
72
411
73
399
0
VERTEX
8
DOOR
10
0
20
0
30
0
70
128
71
398
72
410
73
-411
0
VERTEX
8
DOOR
10
0
20
0
30
0
70
128
71
-399
72
412
73
400
0
VERTEX
8
DOOR
10
0
20
0
30
0
70
128
71
399
72
411
73
-412
0
VERTEX
8
DOOR
10
0
20
0
30
0
70
128
71
-400
72
413
73
401
0
VERTEX
8
DOOR
10
0
20
0
30
0
70
128
71
400
72
412
73
-413
0
VERTEX
8
DOOR
10
0
20
0
30
0
70
128
71
-401
72
414
73
402
0
VERTEX
8
DOOR
10
0
20
0
30
0
70
128
71
401
72
413
73
-414
0
VERTEX
8
DOOR
10
0
20
0
30
0
70
128
71
-402
72
415
73
403
0
VERTEX
8
DOOR
10
0
20
0
30
0
70
128
71
402
72
414
73
-415
0
VERTEX
8
DOOR
10
0
20
0
30
0
70
128
71
-403
72
416
73
404
0
VERTEX
8
DOOR
10
0
20
0
30
0
70
128
71
403
72
415
73
-416
0
VERTEX
8
DOOR
10
0
20
0
30
0
70
128
71
-404
72
417
73
405
0
VERTEX
8
DOOR
10
0
20
0
30
0
70
128
71
404
72
416
73
-417
0
VERTEX
8
DOOR
10
0
20
0
30
0
70
128
71
-405
72
418
73
406
0
VERTEX
8
DOOR
10
0
20
0
30
0
70
128
71
405
72
417
73
-418
0
VERTEX
8
DOOR
10
0
20
0
30
0
70
128
71
-406
72
407
73
395
0
VERTEX
8
DOOR
10
0
20
0
30
0
70
128
71
406
72
418
73
-407
0
VERTEX
8
DOOR
10
0
20
0
30
0
70
128
71
-407
72
420
73
408
0
VERTEX
8
DOOR
10
0
20
0
30
0
70
128
71
407
72
419
73
-420
0
VERTEX
8
DOOR
10
0
20
0
30
0
70
128
71
-408
72
421
73
409
0
VERTEX
8
DOOR
10
0
20
0
30
0
70
128
71
408
72
420
73
-421
0
VERTEX
8
DOOR
10
0
20
0
30
0
70
128
71
-409
72
422
73
410
0
VERTEX
8
DOOR
10
0
20
0
30
0
70
128
71
409
72
421
73
-422
0
VERTEX
8
DOOR
10
0
20
0
30
0
70
128
71
-410
72
423
73
411
0
VERTEX
8
DOOR
10
0
20
0
30
0
70
128
71
410
72
422
73
-423
0
VERTEX
8
DOOR
10
0
20
0
30
0
70
128
71
-411
72
424
73
412
0
VERTEX
8
DOOR
10
0
20
0
30
0
70
128
71
411
72
423
73
-424
0
VERTEX
8
DOOR
10
0
20
0
30
0
70
128
71
-412
72
425
73
413
0
VERTEX
8
DOOR
10
0
20
0
30
0
70
128
71
412
72
424
73
-425
0
VERTEX
8
DOOR
10
0
20
0
30
0
70
128
71
-413
72
426
73
414
0
VERTEX
8
DOOR
10
0
20
0
30
0
70
128
71
413
72
425
73
-426
0
VERTEX
8
DOOR
10
0
20
0
30
0
70
128
71
-414
72
427
73
415
0
VERTEX
8
DOOR
10
0
20
0
30
0
70
128
71
414
72
426
73
-427
0
VERTEX
8
DOOR
10
0
20
0
30
0
70
128
71
-415
72
428
73
416
0
VERTEX
8
DOOR
10
0
20
0
30
0
70
128
71
415
72
427
73
-428
0
VERTEX
8
DOOR
10
0
20
0
30
0
70
128
71
-416
72
429
73
417
0
VERTEX
8
DOOR
10
0
20
0
30
0
70
128
71
416
72
428
73
-429
0
VERTEX
8
DOOR
10
0
20
0
30
0
70
128
71
-417
72
430
73
418
0
VERTEX
8
DOOR
10
0
20
0
30
0
70
128
71
417
72
429
73
-430
0
VERTEX
8
DOOR
10
0
20
0
30
0
70
128
71
-418
72
419
73
407
0
VERTEX
8
DOOR
10
0
20
0
30
0
70
128
71
418
72
430
73
-419
0
VERTEX
8
DOOR
10
0
20
0
30
0
70
128
71
-431
72
444
73
432
0
VERTEX
8
DOOR
10
0
20
0
30
0
70
128
71
431
72
443
73
-444
0
VERTEX
8
DOOR
10
0
20
0
30
0
70
128
71
-432
72
445
73
433
0
VERTEX
8
DOOR
10
0
20
0
30
0
70
128
71
432
72
444
73
-445
0
VERTEX
8
DOOR
10
0
20
0
30
0
70
128
71
-433
72
446
73
434
0
VERTEX
8
DOOR
10
0
20
0
30
0
70
128
71
433
72
445
73
-446
0
VERTEX
8
DOOR
10
0
20
0
30
0
70
128
71
-434
72
447
73
435
0
VERTEX
8
DOOR
10
0
20
0
30
0
70
128
71
434
72
446
73
-447
0
VERTEX
8
DOOR
10
0
20
0
30
0
70
128
71
-435
72
448
73
436
0
VERTEX
8
DOOR
10
0
20
0
30
0
70
128
71
435
72
447
73
-448
0
VERTEX
8
DOOR
10
0
20
0
30
0
70
128
71
-436
72
449
73
437
0
VERTEX
8
DOOR
10
0
20
0
30
0
70
128
71
436
72
448
73
-449
0
VERTEX
8
DOOR
10
0
20
0
30
0
70
128
71
-437
72
450
73
438
0
VERTEX
8
DOOR
10
0
20
0
30
0
70
128
71
437
72
449
73
-450
0
VERTEX
8
DOOR
10
0
20
0
30
0
70
128
71
-438
72
451
73
439
0
VERTEX
8
DOOR
10
0
20
0
30
0
70
128
71
438
72
450
73
-451
0
VERTEX
8
DOOR
10
0
20
0
30
0
70
128
71
-439
72
452
73
440
0
VERTEX
8
DOOR
10
0
20
0
30
0
70
128
71
439
72
451
73
-452
0
VERTEX
8
DOOR
10
0
20
0
30
0
70
128
71
-440
72
453
73
441
0
VERTEX
8
DOOR
10
0
20
0
30
0
70
128
71
440
72
452
73
-453
0
VERTEX
8
DOOR
10
0
20
0
30
0
70
128
71
-441
72
454
73
442
0
VERTEX
8
DOOR
10
0
20
0
30
0
70
128
71
441
72
453
73
-454
0
VERTEX
8
DOOR
10
0
20
0
30
0
70
128
71
-442
72
443
73
431
0
VERTEX
8
DOOR
10
0
20
0
30
0
70
128
71
442
72
454
73
-443
0
VERTEX
8
DOOR
10
0
20
0
30
0
70
128
71
-443
72
456
73
444
0
VERTEX
8
DOOR
10
0
20
0
30
0
70
128
71
443
72
455
73
-456
0
VERTEX
8
DOOR
10
0
20
0
30
0
70
128
71
-444
72
457
73
445
0
VERTEX
8
DOOR
10
0
20
0
30
0
70
128
71
444
72
456
73
-457
0
VERTEX
8
DOOR
10
0
20
0
30
0
70
128
71
-445
72
458
73
446
0
VERTEX
8
DOOR
10
0
20
0
30
0
70
128
71
445
72
457
73
-458
0
VERTEX
8
DOOR
10
0
20
0
30
0
70
128
71
-446
72
459
73
447
0
VERTEX
8
DOOR
10
0
20
0
30
0
70
128
71
446
72
458
73
-459
0
VERTEX
8
DOOR
10
0
20
0
30
0
70
128
71
-447
72
460
73
448
0
VERTEX
8
DOOR
10
0
20
0
30
0
70
128
71
447
72
459
73
-460
0
VERTEX
8
DOOR
10
0
20
0
30
0
70
128
71
-448
72
461
73
449
0
VERTEX
8
DOOR
10
0
20
0
30
0
70
128
71
448
72
460
73
-461
0
VERTEX
8
DOOR
10
0
20
0
30
0
70
128
71
-449
72
462
73
450
0
VERTEX
8
DOOR
10
0
20
0
30
0
70
128
71
449
72
461
73
-462
0
VERTEX
8
DOOR
10
0
20
0
30
0
70
128
71
-450
72
463
73
451
0
VERTEX
8
DOOR
10
0
20
0
30
0
70
128
71
450
72
462
73
-463
0
VERTEX
8
DOOR
10
0
20
0
30
0
70
128
71
-451
72
464
73
452
0
VERTEX
8
DOOR
10
0
20
0
30
0
70
128
71
451
72
463
73
-464
0
VERTEX
8
DOOR
10
0
20
0
30
0
70
128
71
-452
72
465
73
453
0
VERTEX
8
DOOR
10
0
20
0
30
0
70
128
71
452
72
464
73
-465
0
VERTEX
8
DOOR
10
0
20
0
30
0
70
128
71
-453
72
466
73
454
0
VERTEX
8
DOOR
10
0
20
0
30
0
70
128
71
453
72
465
73
-466
0
VERTEX
8
DOOR
10
0
20
0
30
0
70
128
71
-454
72
455
73
443
0
VERTEX
8
DOOR
10
0
20
0
30
0
70
128
71
454
72
466
73
-455
0
VERTEX
8
DOOR
10
0
20
0
30
0
70
128
71
-455
72
-467
73
456
0
VERTEX
8
DOOR
10
0
20
0
30
0
70
128
71
-456
72
-467
73
457
0
VERTEX
8
DOOR
10
0
20
0
30
0
70
128
71
-457
72
-467
73
458
0
VERTEX
8
DOOR
10
0
20
0
30
0
70
128
71
-458
72
-467
73
459
0
VERTEX
8
DOOR
10
0
20
0
30
0
70
128
71
-459
72
-467
73
460
0
VERTEX
8
DOOR
10
0
20
0
30
0
70
128
71
-460
72
-467
73
461
0
VERTEX
8
DOOR
10
0
20
0
30
0
70
128
71
-461
72
-467
73
462
0
VERTEX
8
DOOR
10
0
20
0
30
0
70
128
71
-462
72
-467
73
463
0
VERTEX
8
DOOR
10
0
20
0
30
0
70
128
71
-463
72
-467
73
464
0
VERTEX
8
DOOR
10
0
20
0
30
0
70
128
71
-464
72
-467
73
465
0
VERTEX
8
DOOR
10
0
20
0
30
0
70
128
71
-465
72
-467
73
466
0
VERTEX
8
DOOR
10
0
20
0
30
0
70
128
71
-466
72
-467
73
455
0
VERTEX
8
DOOR
10
0
20
0
30
0
70
128
71
-468
72
481
73
469
0
VERTEX
8
DOOR
10
0
20
0
30
0
70
128
71
468
72
480
73
-481
0
VERTEX
8
DOOR
10
0
20
0
30
0
70
128
71
-469
72
482
73
470
0
VERTEX
8
DOOR
10
0
20
0
30
0
70
128
71
469
72
481
73
-482
0
VERTEX
8
DOOR
10
0
20
0
30
0
70
128
71
-470
72
483
73
471
0
VERTEX
8
DOOR
10
0
20
0
30
0
70
128
71
470
72
482
73
-483
0
VERTEX
8
DOOR
10
0
20
0
30
0
70
128
71
-471
72
484
73
472
0
VERTEX
8
DOOR
10
0
20
0
30
0
70
128
71
471
72
483
73
-484
0
VERTEX
8
DOOR
10
0
20
0
30
0
70
128
71
-472
72
485
73
473
0
VERTEX
8
DOOR
10
0
20
0
30
0
70
128
71
472
72
484
73
-485
0
VERTEX
8
DOOR
10
0
20
0
30
0
70
128
71
-473
72
486
73
474
0
VERTEX
8
DOOR
10
0
20
0
30
0
70
128
71
473
72
485
73
-486
0
VERTEX
8
DOOR
10
0
20
0
30
0
70
128
71
-474
72
487
73
475
0
VERTEX
8
DOOR
10
0
20
0
30
0
70
128
71
474
72
486
73
-487
0
VERTEX
8
DOOR
10
0
20
0
30
0
70
128
71
-475
72
488
73
476
0
VERTEX
8
DOOR
10
0
20
0
30
0
70
128
71
475
72
487
73
-488
0
VERTEX
8
DOOR
10
0
20
0
30
0
70
128
71
-476
72
489
73
477
0
VERTEX
8
DOOR
10
0
20
0
30
0
70
128
71
476
72
488
73
-489
0
VERTEX
8
DOOR
10
0
20
0
30
0
70
128
71
-477
72
490
73
478
0
VERTEX
8
DOOR
10
0
20
0
30
0
70
128
71
477
72
489
73
-490
0
VERTEX
8
DOOR
10
0
20
0
30
0
70
128
71
-478
72
491
73
479
0
VERTEX
8
DOOR
10
0
20
0
30
0
70
128
71
478
72
490
73
-491
0
VERTEX
8
DOOR
10
0
20
0
30
0
70
128
71
-479
72
480
73
468
0
VERTEX
8
DOOR
10
0
20
0
30
0
70
128
71
479
72
491
73
-480
0
VERTEX
8
DOOR
10
0
20
0
30
0
70
128
71
-480
72
-492
73
481
0
VERTEX
8
DOOR
10
0
20
0
30
0
70
128
71
-481
72
-492
73
482
0
VERTEX
8
DOOR
10
0
20
0
30
0
70
128
71
-482
72
-492
73
483
0
VERTEX
8
DOOR
10
0
20
0
30
0
70
128
71
-483
72
-492
73
484
0
VERTEX
8
DOOR
10
0
20
0
30
0
70
128
71
-484
72
-492
73
485
0
VERTEX
8
DOOR
10
0
20
0
30
0
70
128
71
-485
72
-492
73
486
0
VERTEX
8
DOOR
10
0
20
0
30
0
70
128
71
-486
72
-492
73
487
0
VERTEX
8
DOOR
10
0
20
0
30
0
70
128
71
-487
72
-492
73
488
0
VERTEX
8
DOOR
10
0
20
0
30
0
70
128
71
-488
72
-492
73
489
0
VERTEX
8
DOOR
10
0
20
0
30
0
70
128
71
-489
72
-492
73
490
0
VERTEX
8
DOOR
10
0
20
0
30
0
70
128
71
-490
72
-492
73
491
0
VERTEX
8
DOOR
10
0
20
0
30
0
70
128
71
-491
72
-492
73
480
0
VERTEX
8
DOOR
10
0
20
0
30
0
70
128
71
-494
72
516
73
493
0
VERTEX
8
DOOR
10
0
20
0
30
0
70
128
71
-494
72
515
73
-516
0
VERTEX
8
DOOR
10
0
20
0
30
0
70
128
71
-494
72
514
73
-515
0
VERTEX
8
DOOR
10
0
20
0
30
0
70
128
71
-495
72
-514
73
494
0
VERTEX
8
DOOR
10
0
20
0
30
0
70
128
71
-496
72
-514
73
495
0
VERTEX
8
DOOR
10
0
20
0
30
0
70
128
71
-496
72
513
73
-514
0
VERTEX
8
DOOR
10
0
20
0
30
0
70
128
71
-497
72
-513
73
496
0
VERTEX
8
DOOR
10
0
20
0
30
0
70
128
71
-498
72
-513
73
497
0
VERTEX
8
DOOR
10
0
20
0
30
0
70
128
71
-498
72
512
73
-513
0
VERTEX
8
DOOR
10
0
20
0
30
0
70
128
71
-498
72
511
73
-512
0
VERTEX
8
DOOR
10
0
20
0
30
0
70
128
71
-499
72
-511
73
498
0
VERTEX
8
DOOR
10
0
20
0
30
0
70
128
71
-500
72
-511
73
499
0
VERTEX
8
DOOR
10
0
20
0
30
0
70
128
71
-500
72
510
73
-511
0
VERTEX
8
DOOR
10
0
20
0
30
0
70
128
71
-501
72
-510
73
500
0
VERTEX
8
DOOR
10
0
20
0
30
0
70
128
71
-502
72
-510
73
501
0
VERTEX
8
DOOR
10
0
20
0
30
0
70
128
71
-503
72
-510
73
502
0
VERTEX
8
DOOR
10
0
20
0
30
0
70
128
71
-504
72
-510
73
503
0
VERTEX
8
DOOR
10
0
20
0
30
0
70
128
71
-505
72
-510
73
504
0
VERTEX
8
DOOR
10
0
20
0
30
0
70
128
71
-506
72
-510
73
505
0
VERTEX
8
DOOR
10
0
20
0
30
0
70
128
71
-507
72
-510
73
506
0
VERTEX
8
DOOR
10
0
20
0
30
0
70
128
71
-508
72
-510
73
507
0
VERTEX
8
DOOR
10
0
20
0
30
0
70
128
71
509
72
-510
73
508
0
SEQEND
8
DOOR
0
ENDSEC
0
EOF
