mtllib Cardboard_Box.mtl
o cardbox_A
v 49.884590 82.399925 36.347919
v 49.884422 82.399925 -36.347744
v 49.179348 82.954544 -36.066555
v 49.179348 82.954544 36.100765
v -49.595322 82.399925 -36.347744
v -50.000000 82.399925 36.347919
v -48.992344 82.954544 36.100765
v -48.890751 82.954544 -36.066555
v 1.081787 82.954544 -36.066555
v 1.081787 82.954544 36.100765
v 0.811045 82.954544 36.100765
v 0.912468 82.954544 -36.066555
v -48.895638 82.399918 36.963871
v 49.268471 82.399918 36.963871
v 49.268471 83.621712 36.235210
v -48.895638 83.621712 36.235210
v 49.268471 82.399925 -36.963860
v -48.979202 82.399925 -36.963860
v -48.979202 83.621704 -36.215996
v 49.268471 83.621704 -36.215996
v -48.979202 83.621712 -0.354556
v 49.268471 83.621712 -0.354556
v 49.268471 83.621712 -0.210341
v -48.895638 83.621712 -0.210341
v -49.348839 82.399925 36.395775
v -49.363667 82.399925 35.633751
v -49.363667 1.221962 35.633743
v -49.348839 1.221962 36.395763
v 49.823097 82.399925 36.496014
v 49.823097 1.221958 36.496006
v 49.884590 1.221962 36.347916
v 49.884422 1.221962 -36.347752
v 49.823097 1.221962 -36.496006
v 49.823097 82.399925 -36.496002
v 49.416565 82.399925 -36.902534
v 49.416565 1.221966 -36.902546
v 49.268471 1.221966 -36.963871
v -48.979202 1.221966 -36.963871
v -49.127464 82.399925 -36.902534
v -49.127464 1.221966 -36.902546
v 49.179348 0.667339 36.100761
v 49.179348 0.667339 -36.066566
v -49.595322 1.221962 -36.347752
v -48.890751 0.667339 -36.066566
v -48.992344 0.667339 36.100761
v -50.000000 1.221962 36.347916
v 1.081787 0.667339 36.100761
v 1.081787 0.667339 -36.066566
v 0.912468 0.667339 -36.066566
v 0.811045 0.667339 36.100761
v -48.895638 1.221954 36.963867
v -48.895638 0.000004 36.235203
v 49.268471 0.000004 36.235203
v 49.268471 1.221954 36.963867
v 49.268471 0.000000 -36.216000
v -48.979202 0.000000 -36.216000
v 49.268471 0.000000 -0.354560
v -48.979202 0.000000 -0.354560
v -48.895638 0.000000 -0.210344
v 49.268471 0.000000 -0.210344
v -49.307396 1.221958 36.496006
v -49.307396 82.399925 36.496014
v -49.043896 1.221958 36.902538
v -49.043896 82.399918 36.902546
v 49.416565 1.221958 36.902538
v 49.416565 82.399918 36.902546
v -49.533993 1.221962 -36.496006
v -49.533993 82.399925 -36.496002
v 49.076744 82.133217 -36.066555
v 49.450932 82.146698 -36.273445
v 49.451942 82.140297 36.274132
v 49.077755 82.132713 36.100765
v -48.890751 82.132713 36.100933
v -49.295601 81.988831 36.348427
v -49.161831 82.146530 -36.273106
v -48.788315 82.133224 -36.066387
v 49.268471 82.836777 36.067913
v 49.203777 82.172478 36.524658
v -48.831108 82.172478 36.524658
v -48.895638 82.836777 36.067913
v -48.979202 82.834763 -36.051392
v -48.914509 82.169281 -36.524979
v 49.203609 82.169281 -36.524979
v 49.268471 82.834763 -36.051392
v -48.979202 82.779327 -0.354556
v 49.268471 82.779327 -0.354556
v 49.268471 82.779327 -0.210341
v -48.895638 82.779327 -0.210341
v 49.451942 1.481586 36.274124
v 49.439644 1.221958 36.239754
v 49.439644 82.399925 36.239761
v 49.439644 1.221962 -36.239754
v 49.450932 1.475014 -36.273449
v 49.439644 82.399918 -36.239750
v 49.160309 1.221962 -36.518925
v 49.160309 82.399925 -36.518917
v 49.203609 1.452438 -36.524990
v -48.914509 1.452438 -36.524990
v -48.871208 82.399925 -36.518917
v -48.871208 1.221962 -36.518925
v 49.268471 0.785103 36.067905
v -48.895638 0.785103 36.067905
v -48.831108 1.449242 36.524647
v 49.203777 1.449242 36.524647
v -48.979202 0.842384 -0.354560
v 49.268471 0.842384 -0.354560
v 49.268471 0.786953 -36.051399
v -48.979202 0.786953 -36.051399
v 49.268471 0.842384 -0.210344
v -48.895638 0.842384 -0.210344
v -48.899006 1.221966 36.281536
v -48.897491 1.221958 36.301414
v -48.897491 82.399925 36.301422
v -48.899006 82.399925 36.281544
v -48.748726 1.221958 36.548065
v -48.748726 82.399925 36.548073
v 49.160477 1.221966 36.519085
v 49.160477 82.399925 36.519093
v 1.081787 82.112167 -36.066555
v 1.081787 82.112160 36.100765
v 0.811045 82.112160 36.100765
v 0.912468 82.112167 -36.066555
v -48.902546 82.399925 35.624653
v -48.902546 1.221966 35.624645
v 49.077755 1.489002 36.100761
v 49.076744 1.488659 -36.066559
v -49.161831 1.475182 -36.273113
v -48.788315 1.488659 -36.066391
v -48.890751 1.489002 36.100929
v -49.295601 1.632881 36.348419
v 1.081787 1.509720 36.100761
v 1.081787 1.509720 -36.066566
v 0.912468 1.509720 -36.066566
v 0.811045 1.509720 36.100761
v -49.150543 1.221962 -36.239754
v -49.150543 82.399918 -36.239750
vt 0.7161 0.3881
vt 0.9915 0.3857
vt 0.7173 0.3857
vt 0.2860 0.7306
vt 0.0090 0.7329
vt 0.0077 0.7306
vt 0.9924 0.9874
vt 0.5099 0.0122
vt 0.9924 0.0122
vt 0.0086 0.9874
vt 0.5072 0.0122
vt 0.5082 0.9874
vt 0.7109 0.7330
vt 0.2871 0.7382
vt 0.2871 0.7330
vt 0.0219 0.0539
vt 0.0169 0.3666
vt 0.0219 0.3666
vt 0.7050 0.7364
vt 0.2950 0.9352
vt 0.2950 0.7364
vt 0.7099 0.1920
vt 0.2861 0.3837
vt 0.2861 0.1920
vt 0.9338 0.7277
vt 0.9468 0.4093
vt 0.9468 0.7277
vt 0.7154 0.7355
vt 0.7154 0.3881
vt 0.9929 0.7355
vt 0.9936 0.3881
vt 0.9929 0.3881
vt 0.0219 0.3686
vt 0.2629 0.3672
vt 0.0219 0.3672
vt 0.2629 0.3666
vt 0.2629 0.0539
vt 0.2629 0.0534
vt 0.0219 0.0534
vt 0.7161 0.7355
vt 0.9915 0.7379
vt 0.0090 0.3833
vt 0.2860 0.3857
vt 0.0077 0.3857
vt 0.4901 0.0122
vt 0.0076 0.9874
vt 0.0076 0.0122
vt 0.9914 0.9874
vt 0.4928 0.0122
vt 0.9924 0.0122
vt 0.2871 0.3830
vt 0.7109 0.3881
vt 0.2871 0.3881
vt 0.2679 0.3666
vt 0.2950 0.9352
vt 0.7050 0.7364
vt 0.2950 0.7364
vt 0.2861 0.3837
vt 0.7099 0.1920
vt 0.2861 0.1920
vt 0.9831 0.7277
vt 0.2856 0.3881
vt 0.2866 0.7330
vt 0.2856 0.7330
vt 0.7115 0.3881
vt 0.7115 0.7330
vt 0.7129 0.7330
vt 0.0050 0.3857
vt 0.0070 0.7306
vt 0.0050 0.7306
vt 0.0070 0.3857
vt 0.0086 0.9874
vt 0.0048 0.0098
vt 0.0086 0.0122
vt 0.9914 0.0122
vt 0.9941 0.9902
vt 0.9904 0.9874
vt 0.0073 0.0064
vt 0.9914 0.0126
vt 0.0067 0.0126
vt 0.9923 0.9872
vt 0.0073 0.9936
vt 0.0067 0.9872
vt 0.0067 0.5048
vt 0.9923 0.5048
vt 0.9914 0.5028
vt 0.0067 0.5028
vt 0.0098 0.0182
vt 0.0103 0.9849
vt 0.0098 0.9818
vt 0.9897 0.0151
vt 0.9902 0.9819
vt 0.9897 0.9849
vt 0.0078 0.0151
vt 0.0073 0.9821
vt 0.0073 0.0179
vt 0.9916 0.9821
vt 0.9912 0.0151
vt 0.9916 0.0179
vt 0.0086 0.0126
vt 0.9927 0.0064
vt 0.9933 0.0126
vt 0.9933 0.5048
vt 0.0077 0.9872
vt 0.0077 0.5048
vt 0.0086 0.5028
vt 0.9933 0.5028
vt 0.9905 0.0151
vt 0.9903 0.9849
vt 0.9903 0.0151
vt 0.0100 0.0151
vt 0.0092 0.9822
vt 0.0092 0.0178
vt 0.9922 0.0151
vt 0.9927 0.9822
vt 0.9922 0.9849
vt 0.4263 0.0230
vt 0.4317 0.0071
vt 0.4242 0.0068
vt 0.4263 0.0230
vt 0.4317 0.0069
vt 0.4404 0.0121
vt 0.5744 0.0232
vt 0.5694 0.0034
vt 0.5760 0.0063
vt 0.5760 0.0232
vt 0.5716 0.0066
vt 0.5645 0.0118
vt 0.4901 0.9915
vt 0.0086 0.9817
vt 0.4901 0.9815
vt 0.0126 0.9915
vt 0.9878 0.9815
vt 0.9878 0.9915
vt 0.5099 0.9915
vt 0.9914 0.9817
vt 0.9924 0.9915
vt 0.5072 0.9915
vt 0.0086 0.9817
vt 0.5072 0.9815
vt 0.0122 0.9915
vt 0.9874 0.9815
vt 0.9874 0.9915
vt 0.4918 0.9915
vt 0.9904 0.9817
vt 0.9914 0.9915
vt 0.2483 0.0206
vt 0.2218 0.0064
vt 0.2145 0.0212
vt 0.2483 0.0206
vt 0.2218 0.0064
vt 0.2415 0.0074
vt 0.4150 0.0215
vt 0.4434 0.0062
vt 0.4513 0.0220
vt 0.4149 0.0215
vt 0.4434 0.0062
vt 0.4220 0.0075
vt 0.4950 0.0250
vt 0.0023 0.0047
vt 0.4958 0.0034
vt 0.0077 0.9995
vt 0.9933 0.9894
vt 0.9933 0.9995
vt 0.4950 0.0250
vt 0.0023 0.0047
vt 0.0000 0.0250
vt 0.4970 0.0250
vt 0.9977 0.0045
vt 0.4978 0.0033
vt 0.0067 0.9995
vt 0.9914 0.9894
vt 0.9914 0.9995
vt 0.4970 0.0250
vt 0.9977 0.0045
vt 1.0000 0.0250
vt 0.0039 0.0185
vt 0.0085 0.0095
vt 0.0085 0.0186
vt 0.9961 0.0185
vt 0.9915 0.0095
vt 0.9960 0.0082
vt 0.0005 0.0088
vt 0.0050 0.0103
vt 0.0048 0.0098
vt 0.9989 0.0068
vt 0.9952 0.0098
vt 0.9950 0.0103
vt 0.0011 0.9932
vt 0.0048 0.9902
vt 0.0050 0.9897
vt 0.9995 0.9912
vt 0.9950 0.9897
vt 0.9952 0.9902
vt 0.9948 0.9987
vt 0.9989 0.9932
vt 0.0052 0.9987
vt 0.0078 0.9935
vt 0.9927 0.9936
vt 0.9922 0.9935
vt 0.0067 0.9995
vt 0.0073 0.9936
vt 0.0077 0.9995
vt 0.0088 0.9935
vt 0.0084 0.9936
vt 0.9938 0.9987
vt 0.9916 0.9936
vt 0.9912 0.9935
vt 0.3302 0.0077
vt 0.3350 0.0218
vt 0.3284 0.0219
vt 0.3302 0.0077
vt 0.3349 0.0216
vt 0.3426 0.0173
vt 0.9914 0.0085
vt 0.9941 0.0181
vt 0.9904 0.0183
vt 0.0076 0.0085
vt 0.0045 0.0200
vt 0.0005 0.0151
vt 0.5099 0.0085
vt 0.9914 0.0183
vt 0.5099 0.0185
vt 0.9878 0.0085
vt 0.0126 0.0185
vt 0.0126 0.0085
vt 0.4901 0.0085
vt 0.0086 0.0183
vt 0.0076 0.0085
vt 0.4918 0.0085
vt 0.4918 0.0185
vt 0.9874 0.0085
vt 0.0122 0.0185
vt 0.0122 0.0085
vt 0.5072 0.0085
vt 0.0086 0.0183
vt 0.9995 0.0151
vt 0.9874 0.0099
vt 0.9897 0.0005
vt 0.0005 0.0151
vt 0.0126 0.0099
vt 0.0064 0.0178
vt 0.9995 0.0151
vt 0.9872 0.0099
vt 0.9894 0.0005
vt 0.0005 0.0151
vt 0.0128 0.0099
vt 0.0064 0.0179
vt 0.4950 0.0038
vt 0.0023 0.0236
vt 0.4950 0.0235
vt 0.9933 0.0005
vt 0.0077 0.0106
vt 0.0077 0.0005
vt 0.4950 0.0038
vt 0.0023 0.0237
vt 0.0000 0.0038
vt 0.4970 0.0038
vt 0.9977 0.0213
vt 0.4970 0.0236
vt 0.9914 0.0005
vt 0.0067 0.0106
vt 0.0067 0.0005
vt 0.4970 0.0038
vt 0.9977 0.0213
vt 1.0000 0.0038
vt 0.9956 0.0068
vt 0.9915 0.0097
vt 0.0040 0.0082
vt 0.0085 0.0097
vt 0.9900 0.0061
vt 0.9929 0.0013
vt 0.0044 0.0068
vt 0.0100 0.0061
vt 0.0071 0.0013
vt 0.0092 0.0064
vt 0.9914 0.0005
vt 0.9908 0.0064
vt 0.0052 0.0013
vt 0.0073 0.0064
vt 0.0078 0.0065
vt 0.9933 0.0005
vt 0.9922 0.0065
vt 0.9927 0.0064
vt 0.0011 0.0068
vt 0.9948 0.0013
vt 0.9940 0.9897
vt 0.9979 0.9932
vt 0.0062 0.9987
vt 0.0060 0.9897
vt 0.9985 0.9912
vt 0.9941 0.9902
vt 0.0021 0.9932
vt 0.0059 0.9902
vt 0.0083 0.0227
vt 0.9916 0.0052
vt 0.9921 0.0229
vt 0.2848 0.7329
vt 0.5099 0.9874
vt 0.0076 0.0122
vt 0.7109 0.7382
vt 0.0169 0.0539
vt 0.7050 0.9352
vt 0.7099 0.3837
vt 0.9338 0.4093
vt 0.9936 0.7355
vt 0.2629 0.3686
vt 0.7173 0.7379
vt 0.2848 0.3833
vt 0.4901 0.9874
vt 0.4918 0.9874
vt 0.7109 0.3830
vt 0.2679 0.0539
vt 0.7050 0.9352
vt 0.7099 0.3837
vt 0.9831 0.4093
vt 0.2866 0.3881
vt 0.7129 0.3881
vt 0.0048 0.9902
vt 0.9955 0.0088
vt 0.9908 0.0064
vt 0.9916 0.9936
vt 0.0103 0.0151
vt 0.9902 0.0181
vt 0.0078 0.9849
vt 0.9912 0.9849
vt 0.0092 0.0064
vt 0.9933 0.9872
vt 0.9905 0.9849
vt 0.0100 0.9849
vt 0.9927 0.0178
vt 0.4404 0.0121
vt 0.4242 0.0068
vt 0.5579 0.0118
vt 0.5777 0.0063
vt 0.0076 0.9915
vt 0.0126 0.9815
vt 0.5099 0.9815
vt 0.0076 0.9915
vt 0.0122 0.9815
vt 0.4918 0.9815
vt 0.2415 0.0074
vt 0.2145 0.0212
vt 0.4220 0.0075
vt 0.4513 0.0220
vt 0.0000 0.0250
vt 0.0077 0.9894
vt 0.4958 0.0033
vt 1.0000 0.0250
vt 0.0067 0.9894
vt 0.4978 0.0034
vt 0.9915 0.0186
vt 0.9995 0.0088
vt 0.0005 0.9912
vt 0.9933 0.9995
vt 0.9923 0.9995
vt 0.3426 0.0173
vt 0.3284 0.0219
vt 0.9985 0.0151
vt 0.9924 0.0085
vt 0.9878 0.0185
vt 0.4901 0.0185
vt 0.9874 0.0185
vt 0.5072 0.0185
vt 0.9936 0.0178
vt 0.0103 0.0005
vt 0.9936 0.0179
vt 0.0106 0.0005
vt -0.0000 0.0038
vt 0.9933 0.0106
vt 0.4950 0.0236
vt 1.0000 0.0038
vt 0.9914 0.0106
vt 0.4970 0.0235
vt 0.0086 0.0005
vt 0.0067 0.0005
vt 0.0015 0.9912
vt 0.0090 0.0050
vn 0.3954 0.9185 -0.0000
vn 0.3955 0.9185 -0.0000
vn -0.2723 0.9622 0.0001
vn -0.4229 0.9062 -0.0028
vn -0.4124 0.9110 -0.0030
vn 0.0000 1.0000 0.0000
vn 0.0000 0.7367 0.6762
vn 0.0000 0.7453 -0.6667
vn -0.0001 0.7453 -0.6667
vn -0.9998 0.0000 0.0195
vn 0.9239 0.0000 0.3827
vn 0.9239 -0.0000 0.3826
vn 0.9238 0.0000 -0.3828
vn 0.7071 0.0000 -0.7071
vn 0.3826 0.0000 -0.9239
vn 0.0000 0.0000 -1.0000
vn -0.3829 0.0000 -0.9238
vn -0.3828 0.0000 -0.9238
vn 0.3954 -0.9185 -0.0000
vn 0.3955 -0.9184 -0.0000
vn -0.4229 -0.9062 -0.0028
vn -0.2723 -0.9622 0.0001
vn -0.4124 -0.9110 -0.0030
vn 0.0000 -1.0000 0.0000
vn 0.0000 -0.7367 0.6762
vn -0.0000 -0.7453 -0.6667
vn -0.9241 -0.0000 0.3821
vn -0.8391 0.0000 0.5439
vn -0.8392 -0.0000 0.5439
vn -0.3827 -0.0000 0.9239
vn 0.0000 -0.0000 1.0000
vn 0.3826 -0.0000 0.9239
vn 0.7071 -0.0000 0.7071
vn 1.0000 -0.0000 -0.0000
vn -0.7071 0.0000 -0.7071
vn -0.9238 0.0000 -0.3828
vn -1.0000 -0.0000 -0.0056
vn 0.0232 -0.9997 -0.0000
vn 0.0076 -1.0000 0.0000
vn 0.0075 -1.0000 0.0000
vn 0.2583 -0.9661 -0.0014
vn -0.1124 -0.9937 0.0006
vn -0.1061 -0.9944 0.0008
vn -0.0000 -0.7823 -0.6229
vn -0.0000 -0.7926 0.6098
vn -0.0000 -1.0000 -0.0010
vn 0.0000 -1.0000 0.0010
vn 0.9408 -0.0000 -0.3390
vn 0.9484 -0.0000 0.3172
vn 0.9483 -0.0000 0.3172
vn -0.1380 0.0000 -0.9904
vn -0.1376 0.0000 -0.9905
vn 0.1378 0.0000 -0.9905
vn 0.1381 0.0000 -0.9904
vn 0.0000 0.7823 -0.6229
vn -0.0000 1.0000 -0.0010
vn 0.0000 1.0000 0.0010
vn -0.9965 -0.0000 0.0835
vn -0.2750 0.0000 0.9614
vn -0.1249 0.0000 0.9922
vn -0.1255 -0.0000 0.9921
vn -0.3618 0.2042 -0.9096
vn -0.3592 0.2043 -0.9106
vn -0.4799 0.1601 -0.8626
vn -0.3212 0.1665 0.9323
vn -0.3224 0.1654 0.9321
vn -0.2353 0.2034 0.9504
vn 0.2716 0.2804 0.9207
vn 0.2734 0.2785 0.9207
vn 0.4960 0.2089 0.8428
vn 0.3621 0.2037 -0.9096
vn 0.3597 0.2037 -0.9106
vn 0.2498 0.2546 -0.9342
vn -1.0000 0.0000 0.0000
vn 0.0000 0.0002 1.0000
vn 1.0000 0.0000 0.0014
vn -0.0000 -0.0002 -1.0000
vn 0.9906 -0.1294 -0.0435
vn 0.9973 -0.0723 -0.0157
vn 0.9991 -0.0417 0.0000
vn -0.9906 -0.1294 -0.0434
vn -0.9973 -0.0724 -0.0157
vn -0.9800 -0.1863 -0.0701
vn -0.9906 -0.1301 0.0428
vn -0.9973 -0.0725 0.0153
vn -0.9991 -0.0420 0.0001
vn 0.9906 -0.1302 0.0428
vn 0.9973 -0.0724 0.0153
vn 0.9798 -0.1876 0.0691
vn 0.0000 0.9999 -0.0160
vn 0.0758 -0.9876 -0.1373
vn 0.2408 -0.3512 -0.9048
vn 0.2309 -0.2587 -0.9380
vn -0.3761 0.9168 -0.1343
vn 0.3749 0.4701 -0.7990
vn 0.5694 0.1299 -0.8118
vn -0.3715 -0.9205 0.1214
vn 0.3774 -0.4723 0.7966
vn 0.5702 -0.1283 0.8114
vn 0.0723 0.9891 0.1282
vn 0.2417 0.3507 0.9048
vn 0.2309 0.2621 0.9370
vn -0.0804 0.9286 0.3623
vn -0.8117 0.4330 -0.3921
vn -0.8171 0.0720 -0.5720
vn -0.1078 -0.9919 -0.0668
vn -0.9224 -0.2948 -0.2495
vn -0.9471 -0.2195 -0.2341
vn 0.1081 0.9919 -0.0670
vn 0.9224 0.2949 -0.2495
vn 0.9471 0.2194 -0.2341
vn 0.0812 -0.9288 0.3616
vn 0.8118 -0.4324 -0.3924
vn 0.8170 -0.0713 -0.5722
vn -0.3212 -0.1665 0.9323
vn -0.3223 -0.1654 0.9321
vn -0.4178 -0.1319 0.8989
vn -0.3618 -0.2042 -0.9096
vn -0.3592 -0.2043 -0.9106
vn -0.2493 -0.2552 -0.9342
vn 0.3621 -0.2037 -0.9096
vn 0.3597 -0.2037 -0.9106
vn 0.4803 -0.1596 -0.8625
vn 0.2716 -0.2804 0.9207
vn 0.2734 -0.2785 0.9207
vn 0.1141 -0.3460 0.9313
vn -0.0000 0.0002 -1.0000
vn 0.0000 -0.0002 1.0000
vn -0.9906 0.1294 -0.0435
vn -0.9973 0.0724 -0.0157
vn -0.9991 0.0418 -0.0000
vn 0.9906 0.1295 -0.0435
vn 0.9973 0.0724 -0.0157
vn 0.9799 0.1865 -0.0702
vn 0.9906 0.1302 0.0429
vn 0.9973 0.0724 0.0153
vn 0.9991 0.0419 0.0000
vn -0.9906 0.1302 0.0428
vn -0.9973 0.0725 0.0153
vn -0.9799 0.1874 0.0690
vn 0.0002 1.0000 0.0004
vn 0.0005 -1.0000 0.0009
vn 0.0000 -1.0000 -0.0008
vn 0.1495 0.9073 -0.3931
vn 0.8418 0.1904 0.5051
vn 0.7536 -0.1622 0.6370
vn 0.1495 -0.9859 0.0756
vn 0.9340 -0.0574 0.3527
vn 0.9419 0.0347 0.3342
vn -0.0745 -0.9302 -0.3594
vn -0.8115 -0.4318 0.3937
vn -0.8171 -0.0686 0.5724
vn -0.1037 0.9924 0.0656
vn -0.9230 0.2924 0.2502
vn -0.9471 0.2194 0.2343
vn -0.0720 -0.9892 0.1280
vn -0.2416 -0.3518 0.9044
vn -0.2308 -0.2633 0.9367
vn 0.3717 0.9204 0.1210
vn -0.3768 0.4739 0.7959
vn -0.5701 0.1300 0.8112
vn -0.0007 -0.0000 1.0000
vn -0.2609 0.9654 0.0001
vn -0.2609 -0.9654 0.0001
vn -0.0001 -0.7367 0.6762
vn 0.2661 -0.9639 -0.0012
vn -0.2493 0.2553 -0.9342
vn -0.4178 0.1319 0.8989
vn 0.1141 0.3460 0.9313
vn 0.4803 0.1597 -0.8625
vn 0.9799 -0.1865 -0.0702
vn -0.9991 -0.0418 -0.0000
vn -0.9799 -0.1874 0.0690
vn 0.9991 -0.0419 0.0000
vn -0.1346 -0.8787 0.4581
vn -0.4851 0.8744 -0.0084
vn -0.4767 -0.8791 0.0020
vn -0.1345 0.8786 -0.4582
vn 0.0128 0.8960 0.4438
vn 0.4586 -0.8783 0.1353
vn -0.4586 0.8784 0.1347
vn -0.0126 -0.8962 0.4435
vn -0.2353 -0.2034 0.9504
vn -0.4799 -0.1601 -0.8626
vn 0.2498 -0.2546 -0.9342
vn 0.4960 -0.2088 0.8428
vn -0.9800 0.1863 -0.0701
vn 0.9991 0.0417 0.0000
vn 0.9798 0.1877 0.0691
vn -0.9991 0.0420 0.0001
vn 0.0324 0.8871 -0.4604
vn -0.3914 -0.9005 -0.1894
vn 0.0155 -0.8984 -0.4390
vn 0.4589 0.8782 -0.1347
vn 0.1345 -0.8788 -0.4578
vn 0.4771 0.8788 0.0018
usemtl wire_115115115
s 1
f 1/1/1 3/2/2 4/3/1
f 6/4/3 8/5/4 5/6/5
f 3/7/6 10/8/6 4/9/6
f 8/10/6 11/11/6 12/12/6
f 14/13/7 16/14/7 13/15/7
f 18/16/8 20/17/9 17/18/8
f 19/19/6 22/20/6 20/21/6
f 15/22/6 24/23/6 16/24/6
f 26/25/10 28/26/10 25/27/10
f 30/28/11 1/1/12 29/29/12
f 32/30/13 34/31/13 2/32/13
f 34/33/14 36/34/14 35/35/14
f 17/18/15 36/34/15 37/36/15
f 17/18/16 38/37/16 18/16/16
f 18/16/17 40/38/18 39/39/17
f 31/40/19 42/41/20 32/30/20
f 44/42/21 46/43/22 43/44/23
f 47/45/24 42/46/24 41/47/24
f 44/48/24 50/49/24 45/50/24
f 52/51/25 54/52/25 51/53/25
f 55/54/26 38/37/26 37/36/26
f 57/55/24 56/56/24 55/57/24
f 59/58/24 53/59/24 52/60/24
f 28/26/27 62/61/27 25/27/27
f 61/62/28 64/63/29 62/64/29
f 64/63/30 51/53/30 13/15/30
f 51/53/31 14/13/31 13/15/31
f 14/13/32 65/65/32 66/66/32
f 65/65/33 29/67/33 66/66/33
f 1/1/34 32/30/34 2/32/34
f 40/68/35 68/69/35 39/70/35
f 67/71/36 5/6/36 68/69/36
f 43/44/37 6/4/37 5/6/37
f 69/72/38 71/73/39 72/74/40
f 73/75/41 75/76/42 76/77/43
f 78/78/44 80/79/44 77/80/44
f 81/81/45 83/82/45 84/83/45
f 81/81/46 86/84/46 85/85/46
f 77/80/47 88/86/47 87/87/47
f 89/88/48 91/89/48 71/90/48
f 92/91/49 70/92/50 94/93/50
f 95/94/51 83/95/52 97/96/51
f 82/97/53 100/98/54 98/99/54
f 102/100/55 104/101/55 101/102/55
f 106/103/56 108/104/56 105/105/56
f 110/106/57 101/102/57 109/107/57
f 112/108/58 114/109/58 111/110/58
f 115/111/59 79/112/59 103/113/59
f 117/114/60 78/115/61 118/116/61
f 3/117/62 70/118/63 69/119/64
f 4/120/65 71/121/66 1/122/67
f 7/123/68 74/124/69 73/125/70
f 8/126/71 75/127/72 5/128/73
f 9/129/16 69/130/16 119/131/16
f 9/132/74 120/133/74 10/134/74
f 10/135/31 72/136/31 4/137/31
f 11/138/31 73/139/75 121/140/31
f 11/141/76 122/142/76 12/143/76
f 12/144/16 76/145/77 8/146/77
f 14/147/78 77/148/79 15/149/80
f 13/150/81 80/151/82 79/152/83
f 18/153/84 81/154/85 19/155/86
f 17/156/87 84/157/88 83/158/89
f 21/159/74 81/160/74 85/161/74
f 21/162/31 86/163/31 22/164/31
f 22/165/34 84/166/34 20/167/34
f 23/168/34 77/169/34 87/170/34
f 23/171/16 88/172/16 24/173/16
f 24/174/74 80/175/74 16/176/74
f 26/177/6 113/178/90 123/179/6
f 27/180/24 112/181/24 28/182/24
f 31/183/91 90/184/92 89/185/93
f 29/186/94 71/187/95 91/188/96
f 33/189/97 93/190/98 92/191/99
f 2/192/100 94/193/101 70/194/102
f 35/195/6 94/193/6 34/196/6
f 36/197/24 92/191/24 95/198/24
f 35/195/103 83/199/104 96/200/105
f 37/201/106 95/198/107 97/202/108
f 18/203/109 99/204/110 82/205/111
f 40/206/112 98/207/113 100/208/114
f 41/209/115 89/210/116 125/211/117
f 42/212/118 93/213/119 32/214/120
f 44/215/121 127/216/122 128/217/123
f 45/218/124 130/219/125 46/220/126
f 47/221/31 125/222/31 131/223/31
f 47/224/74 132/225/74 48/226/74
f 48/227/16 126/228/16 42/229/16
f 49/230/16 128/217/127 133/231/16
f 49/232/76 134/233/76 50/234/76
f 50/235/31 129/236/128 45/218/128
f 51/237/129 102/238/130 52/239/131
f 54/240/132 101/241/133 104/242/134
f 37/243/135 107/244/136 55/245/137
f 38/246/138 108/247/139 98/248/140
f 57/249/34 107/250/34 106/251/34
f 57/252/31 105/253/31 58/254/31
f 58/255/74 108/256/74 56/257/74
f 59/258/74 102/259/74 110/260/74
f 59/261/16 109/262/16 60/263/16
f 60/264/34 101/265/34 53/266/34
f 61/267/24 112/181/141 111/268/142
f 25/269/6 114/270/143 113/178/90
f 61/267/24 115/271/24 63/272/24
f 62/273/6 116/274/6 114/270/6
f 64/275/144 79/276/145 116/274/146
f 51/277/147 115/271/148 103/278/149
f 65/279/150 104/280/151 117/281/152
f 14/282/153 118/283/154 78/284/155
f 30/285/24 117/281/24 90/184/24
f 29/186/6 118/283/6 66/286/6
f 40/206/24 135/287/24 67/288/24
f 39/289/6 136/290/6 99/204/6
f 43/291/156 135/287/157 127/292/158
f 68/293/159 75/294/160 136/290/161
f 46/295/162 74/296/162 6/297/162
f 1/1/1 2/32/2 3/2/2
f 6/4/3 7/298/163 8/5/4
f 3/7/6 9/299/6 10/8/6
f 8/10/6 7/300/6 11/11/6
f 14/13/7 15/301/7 16/14/7
f 18/16/8 19/302/8 20/17/9
f 19/19/6 21/303/6 22/20/6
f 15/22/6 23/304/6 24/23/6
f 26/25/10 27/305/10 28/26/10
f 30/28/11 31/40/11 1/1/12
f 32/30/13 33/306/13 34/31/13
f 34/33/14 33/307/14 36/34/14
f 17/18/15 35/35/15 36/34/15
f 17/18/16 37/36/16 38/37/16
f 18/16/17 38/37/18 40/38/18
f 31/40/19 41/308/19 42/41/20
f 44/42/21 45/309/164 46/43/22
f 47/45/24 48/310/24 42/46/24
f 44/48/24 49/311/24 50/49/24
f 52/51/25 53/312/165 54/52/25
f 55/54/26 56/313/26 38/37/26
f 57/55/24 58/314/24 56/56/24
f 59/58/24 60/315/24 53/59/24
f 28/26/27 61/316/27 62/61/27
f 61/62/28 63/317/28 64/63/29
f 64/63/30 63/317/30 51/53/30
f 51/53/31 54/52/31 14/13/31
f 14/13/32 54/52/32 65/65/32
f 65/65/33 30/318/33 29/67/33
f 1/1/34 31/40/34 32/30/34
f 40/68/35 67/71/35 68/69/35
f 67/71/36 43/44/36 5/6/36
f 43/44/37 46/43/37 6/4/37
f 69/72/38 70/319/38 71/73/39
f 73/75/41 74/320/166 75/76/42
f 78/78/44 79/321/44 80/79/44
f 81/81/45 82/322/45 83/82/45
f 81/81/46 84/83/46 86/84/46
f 77/80/47 80/79/47 88/86/47
f 89/88/48 90/323/48 91/89/48
f 92/91/49 93/324/49 70/92/50
f 95/94/51 96/325/52 83/95/52
f 82/97/53 99/326/53 100/98/54
f 102/100/55 103/327/55 104/101/55
f 106/103/56 107/328/56 108/104/56
f 110/106/57 102/100/57 101/102/57
f 112/108/58 113/329/58 114/109/58
f 115/111/59 116/330/59 79/112/59
f 117/114/60 104/331/60 78/115/61
f 3/117/62 2/332/167 70/118/63
f 4/120/65 72/333/168 71/121/66
f 7/123/68 6/334/169 74/124/69
f 8/126/71 76/335/170 75/127/72
f 9/129/16 3/336/16 69/130/16
f 9/132/74 119/337/74 120/133/74
f 10/135/31 120/338/31 72/136/31
f 11/138/31 7/339/75 73/139/75
f 11/141/76 121/340/76 122/142/76
f 12/144/16 122/341/16 76/145/77
f 14/147/78 78/342/171 77/148/79
f 13/150/81 16/343/172 80/151/82
f 18/153/84 82/344/173 81/154/85
f 17/156/87 20/345/174 84/157/88
f 21/159/74 19/346/74 81/160/74
f 21/162/31 85/347/31 86/163/31
f 22/165/34 86/348/34 84/166/34
f 23/168/34 15/349/34 77/169/34
f 23/171/16 87/350/16 88/172/16
f 24/174/74 88/351/74 80/175/74
f 26/177/6 25/269/6 113/178/90
f 27/180/24 124/352/24 112/181/24
f 31/183/91 30/285/175 90/184/92
f 29/186/94 1/353/176 71/187/95
f 33/189/97 32/354/177 93/190/98
f 2/192/100 34/196/178 94/193/101
f 35/195/6 96/200/6 94/193/6
f 36/197/24 33/189/24 92/191/24
f 35/195/103 17/355/179 83/199/104
f 37/201/106 36/197/180 95/198/107
f 18/203/109 39/289/181 99/204/110
f 40/206/112 38/356/182 98/207/113
f 41/209/115 31/357/183 89/210/116
f 42/212/118 126/358/184 93/213/119
f 44/215/121 43/359/185 127/216/122
f 45/218/124 129/236/186 130/219/125
f 47/221/31 41/360/31 125/222/31
f 47/224/74 131/361/74 132/225/74
f 48/227/16 132/362/16 126/228/16
f 49/230/16 44/215/127 128/217/127
f 49/232/76 133/363/76 134/233/76
f 50/235/31 134/364/31 129/236/128
f 51/237/129 103/365/187 102/238/130
f 54/240/132 53/366/188 101/241/133
f 37/243/135 97/367/189 107/244/136
f 38/246/138 56/368/190 108/247/139
f 57/249/34 55/369/34 107/250/34
f 57/252/31 106/370/31 105/253/31
f 58/255/74 105/371/74 108/256/74
f 59/258/74 52/372/74 102/259/74
f 59/261/16 110/373/16 109/262/16
f 60/264/34 109/374/34 101/265/34
f 61/267/24 28/182/24 112/181/141
f 25/269/6 62/273/6 114/270/143
f 61/267/24 111/268/142 115/271/24
f 62/273/6 64/275/6 116/274/6
f 64/275/144 13/375/191 79/276/145
f 51/277/147 63/272/192 115/271/148
f 65/279/150 54/376/193 104/280/151
f 14/282/153 66/286/194 118/283/154
f 30/285/24 65/279/24 117/281/24
f 29/186/6 91/188/6 118/283/6
f 40/206/24 100/208/24 135/287/24
f 39/289/6 68/293/6 136/290/6
f 43/291/156 67/288/195 135/287/157
f 68/293/159 5/377/196 75/294/160
f 46/295/162 130/378/162 74/296/162
o Plane001
v -49.817875 60.476898 -4.317803
v -49.840282 60.476898 3.929130
v -49.857635 82.361008 3.929131
v -49.814003 82.361511 -4.317802
v -49.027214 83.681694 -4.317802
v -49.027214 83.681694 3.929131
v 49.269993 83.759026 3.929131
v 49.269993 83.628288 -4.317802
v 49.918289 82.332367 3.929131
v 50.000000 82.332367 -4.317802
v 50.000000 60.002296 3.929130
v 49.991577 60.002296 -4.317803
vt 0.0198 0.9859
vt 0.1536 0.9495
vt 0.1536 0.9859
vt 0.1619 0.9495
vt 0.8366 0.9859
vt 0.1619 0.9859
vt 0.8429 0.9495
vt 0.8429 0.9859
vt 0.9913 0.9495
vt 0.0198 0.9495
vt 0.8366 0.9495
vt 0.9913 0.9859
vn -1.0000 -0.0006 -0.0033
vn -1.0000 -0.0000 -0.0047
vn -1.0000 0.0002 -0.0053
vn 0.0005 1.0000 -0.0008
vn -0.0007 0.9999 -0.0150
vn 0.0005 1.0000 0.0000
vn 0.8762 0.4818 0.0068
vn 0.9063 0.4226 -0.0048
vn 0.8712 0.4908 0.0086
vn 1.0000 0.0005 0.0014
vn 1.0000 0.0028 0.0074
vn 0.9999 0.0037 0.0099
vn -0.8480 0.5299 -0.0039
vn -0.8576 0.5144 -0.0005
vn -0.8465 0.5323 -0.0044
vn -1.0000 -0.0008 -0.0027
vn -0.0008 0.9999 -0.0158
vn 0.9104 0.4137 -0.0066
vn 1.0000 -0.0004 -0.0010
vn -0.8590 0.5119 0.0000
usemtl wire_088199225
s 1
f 137/379/197 139/380/198 140/381/199
f 142/382/200 144/383/201 141/384/202
f 144/383/203 145/385/204 146/386/205
f 147/387/206 146/386/207 145/385/208
f 142/382/209 140/381/210 139/380/211
f 137/379/197 138/388/212 139/380/198
f 142/382/200 143/389/213 144/383/201
f 144/383/203 143/389/214 145/385/204
f 147/387/206 148/390/215 146/386/207
f 142/382/209 141/384/216 140/381/210
